<svg xmlns="http://www.w3.org/2000/svg" xmlns:xlink="http://www.w3.org/1999/xlink" width="1920" height="798" viewBox="0 0 1920 798">
 <rect width="100%" height="100%" fill="#315595" />
  <defs>
    <clipPath id="clip-path">
      <rect id="Rectangle_14878" data-name="Rectangle 14878" width="1920" height="798" fill="#315595"/>
    </clipPath>
    <clipPath id="clip-path-2">
      <rect id="Rectangle_14882" data-name="Rectangle 14882" width="2860.459" height="935.861" fill="none"/>
    </clipPath>
  </defs>
  <g id="Mask_Group_5" data-name="Mask Group 5" clip-path="url(#clip-path)">
    <g id="Group_62361" data-name="Group 62361" transform="translate(-1438.844 -340.541)">
      <g id="Group_62357" data-name="Group 62357" transform="translate(561.356 271.611)" clip-path="url(#clip-path-2)">
        <path id="Path_232964" data-name="Path 232964" d="M1359.1,461.917l1.346,1.779c11.114,15.961,6.176,43.2.634,59.961-9.969,30.2-87.018,74.851-112.732,95.208-20.974,16.594-62.654,52.588-30.217,89.339q1.489,1.671,3.156,3.391h.018c1.036-11.389,5.249-21.716,11.668-31.287,27.87-41.457,96.606-69.759,131.9-109.975,18.775-21.393,29.666-77.779-5.773-108.415" transform="translate(1611.977 369.785)" fill="#1a428a"/>
        <path id="Path_232965" data-name="Path 232965" d="M1326.514,465.342l1.346,1.779c11.113,15.961,6.18,43.192.638,59.961-9.973,30.2-87.022,74.851-112.737,95.208-20.977,16.594-62.653,52.588-30.216,89.338q1.482,1.672,3.156,3.391h.017c1.036-11.393,5.249-21.72,11.673-31.287,27.865-41.457,96.6-69.76,131.9-109.98,18.775-21.393,29.662-77.775-5.773-108.411" transform="translate(1502.137 381.329)" fill="#1a428a"/>
        <path id="Path_232966" data-name="Path 232966" d="M1293.923,468.767l1.346,1.779c11.114,15.96,6.18,43.2.638,59.961-9.973,30.2-87.022,74.851-112.733,95.208-20.978,16.594-62.653,52.588-30.221,89.338.992,1.115,2.041,2.247,3.16,3.392h.013c1.036-11.389,5.249-21.716,11.673-31.287,27.865-41.457,96.6-69.759,131.9-109.975,18.771-21.393,29.662-77.779-5.777-108.415" transform="translate(1392.303 392.872)" fill="#1a428a"/>
        <path id="Path_232967" data-name="Path 232967" d="M1261.334,472.191l1.346,1.779c11.114,15.965,6.179,43.2.634,59.961-9.969,30.2-87.018,74.851-112.733,95.208-20.973,16.594-62.648,52.593-30.216,89.343.992,1.115,2.041,2.242,3.16,3.391h.013c1.036-11.393,5.249-21.721,11.673-31.292,27.865-41.457,96.6-69.755,131.9-109.975,18.774-21.393,29.666-77.779-5.773-108.415" transform="translate(1282.467 404.412)" fill="#1a428a"/>
        <path id="Path_232968" data-name="Path 232968" d="M1228.745,475.616l1.346,1.779c11.113,15.96,6.179,43.2.638,59.961-9.973,30.2-87.022,74.851-112.733,95.208-20.978,16.594-62.653,52.588-30.221,89.338q1.488,1.672,3.156,3.391h.018c1.036-11.389,5.249-21.72,11.673-31.287,27.865-41.457,96.6-69.759,131.9-109.975,18.771-21.393,29.662-77.779-5.777-108.415" transform="translate(1172.627 415.956)" fill="#1a428a"/>
        <path id="Path_232969" data-name="Path 232969" d="M1196.157,479.041l1.346,1.779c11.114,15.961,6.175,43.2.633,59.961-9.968,30.2-87.017,74.851-112.732,95.208-20.974,16.594-62.654,52.593-30.217,89.339q1.488,1.672,3.155,3.392h.018c1.036-11.389,5.249-21.716,11.673-31.287,27.865-41.457,96.6-69.76,131.9-109.975,18.775-21.393,29.666-77.779-5.773-108.415" transform="translate(1062.79 427.499)" fill="#1a428a"/>
        <path id="Path_232970" data-name="Path 232970" d="M1163.568,482.466l1.347,1.779c11.114,15.96,6.179,43.192.638,59.961-9.974,30.2-87.023,74.851-112.733,95.208-20.978,16.594-62.658,52.588-30.221,89.339q1.488,1.672,3.155,3.391h.017c1.036-11.394,5.249-21.721,11.673-31.287,27.865-41.457,96.6-69.76,131.9-109.979,18.771-21.393,29.657-77.775-5.778-108.411" transform="translate(952.954 439.043)" fill="#1a428a"/>
        <path id="Path_232971" data-name="Path 232971" d="M1130.979,485.891l1.346,1.779c11.114,15.96,6.175,43.2.634,59.961-9.969,30.2-87.018,74.851-112.733,95.208-20.973,16.594-62.653,52.588-30.216,89.339q1.488,1.672,3.155,3.391h.018c1.036-11.389,5.249-21.716,11.669-31.287,27.87-41.457,96.606-69.759,131.9-109.975,18.775-21.393,29.666-77.779-5.773-108.415" transform="translate(843.117 450.586)" fill="#1a428a"/>
        <path id="Path_232972" data-name="Path 232972" d="M1098.387,489.316l1.346,1.779c11.114,15.965,6.18,43.2.638,59.961-9.973,30.2-87.022,74.851-112.737,95.208-20.973,16.594-62.649,52.593-30.216,89.343.992,1.115,2.041,2.242,3.159,3.391h.014c1.036-11.393,5.249-21.721,11.673-31.292,27.866-41.457,96.6-69.755,131.9-109.975,18.775-21.393,29.666-77.779-5.773-108.415" transform="translate(733.279 462.129)" fill="#1a428a"/>
        <path id="Path_232973" data-name="Path 232973" d="M1065.8,492.741l1.346,1.779c11.109,15.96,6.18,43.2.634,59.961-9.969,30.2-87.018,74.851-112.729,95.208-20.982,16.594-62.653,52.588-30.225,89.338q1.488,1.672,3.155,3.391H928c1.036-11.389,5.249-21.72,11.677-31.287,27.861-41.457,96.6-69.759,131.9-109.975,18.771-21.393,29.662-77.779-5.773-108.415" transform="translate(623.442 473.673)" fill="#1a428a"/>
        <path id="Path_232974" data-name="Path 232974" d="M1376.882,410.024l1.346,1.779c11.114,15.961,6.179,43.2.638,59.961-9.973,30.2-87.022,74.851-112.733,95.208-20.977,16.594-62.657,52.588-30.221,89.339q1.488,1.672,3.155,3.391h.018c1.036-11.389,5.249-21.716,11.673-31.287,27.865-41.457,96.6-69.759,131.9-109.975,18.771-21.393,29.662-77.779-5.778-108.415" transform="translate(1671.895 194.888)" fill="#1a428a"/>
        <path id="Path_232975" data-name="Path 232975" d="M1232.1,519c-20.942-10.62-28.962-15.96-37.261-24.29,1.035-11.394,5.248-21.721,11.673-31.287,1.083,9.768,5.821,37.4,25.588,55.578" transform="translate(1573.712 374.851)" fill="#1a428a"/>
        <path id="Path_232976" data-name="Path 232976" d="M1344.293,413.448l1.346,1.779c11.114,15.969,6.175,43.2.634,59.965-9.969,30.2-87.018,74.851-112.733,95.208-20.973,16.594-62.653,52.593-30.217,89.339q1.488,1.672,3.156,3.387h.018c1.035-11.389,5.248-21.716,11.668-31.287,27.87-41.453,96.606-69.755,131.9-109.975,18.775-21.388,29.666-77.779-5.773-108.415" transform="translate(1562.058 206.428)" fill="#1a428a"/>
        <path id="Path_232977" data-name="Path 232977" d="M1199.519,522.422c-20.947-10.62-28.967-15.96-37.266-24.29,1.04-11.394,5.253-21.721,11.678-31.287,1.083,9.772,5.821,37.4,25.588,55.578" transform="translate(1463.873 386.391)" fill="#1a428a"/>
        <path id="Path_232978" data-name="Path 232978" d="M1311.7,416.874l1.346,1.779c11.114,15.96,6.18,43.2.639,59.961-9.974,30.2-87.023,74.851-112.737,95.208-20.978,16.594-62.654,52.588-30.217,89.338q1.482,1.672,3.155,3.392h.018c1.036-11.389,5.249-21.721,11.673-31.287,27.866-41.457,96.6-69.759,131.9-109.975,18.775-21.4,29.661-77.779-5.773-108.415" transform="translate(1452.219 217.975)" fill="#1a428a"/>
        <path id="Path_232979" data-name="Path 232979" d="M1166.925,525.843c-20.942-10.616-28.966-15.956-37.261-24.29,1.036-11.389,5.249-21.721,11.673-31.283,1.084,9.768,5.821,37.4,25.588,55.573" transform="translate(1354.036 397.938)" fill="#1a428a"/>
        <path id="Path_232980" data-name="Path 232980" d="M1279.112,420.3l1.346,1.783c11.114,15.956,6.18,43.192.638,59.957-9.973,30.2-87.022,74.851-112.732,95.208-20.978,16.594-62.653,52.588-30.221,89.339.992,1.115,2.041,2.246,3.16,3.392h.013c1.036-11.389,5.249-21.716,11.673-31.287,27.866-41.457,96.6-69.759,131.9-109.975,18.771-21.393,29.657-77.779-5.778-108.415" transform="translate(1342.385 229.515)" fill="#1a428a"/>
        <path id="Path_232981" data-name="Path 232981" d="M1134.34,529.272c-20.947-10.62-28.966-15.961-37.266-24.291,1.04-11.394,5.253-21.721,11.677-31.287,1.084,9.772,5.822,37.4,25.588,55.578" transform="translate(1244.197 409.478)" fill="#1a428a"/>
        <path id="Path_232982" data-name="Path 232982" d="M1246.523,423.723l1.346,1.783c11.114,15.956,6.18,43.188.634,59.957-9.969,30.2-87.018,74.851-112.733,95.208-20.973,16.594-62.649,52.588-30.216,89.339.992,1.115,2.041,2.246,3.16,3.391h.013c1.036-11.394,5.249-21.721,11.673-31.287,27.865-41.457,96.6-69.759,131.9-109.98,18.775-21.393,29.666-77.775-5.773-108.411" transform="translate(1232.549 241.059)" fill="#1a428a"/>
        <path id="Path_232983" data-name="Path 232983" d="M1101.748,532.7c-20.947-10.62-28.966-15.96-37.262-24.29,1.036-11.394,5.249-21.721,11.669-31.287,1.088,9.768,5.826,37.4,25.593,55.578" transform="translate(1134.364 421.021)" fill="#1a428a"/>
        <path id="Path_232984" data-name="Path 232984" d="M1213.934,427.148l1.346,1.779c11.114,15.961,6.18,43.2.638,59.961-9.973,30.2-87.022,74.851-112.733,95.208-20.981,16.594-62.653,52.588-30.22,89.339q1.488,1.671,3.155,3.391h.018c1.036-11.389,5.249-21.716,11.673-31.287,27.865-41.457,96.6-69.759,131.9-109.975,18.771-21.393,29.657-77.779-5.777-108.415" transform="translate(1122.709 252.602)" fill="#1a428a"/>
        <path id="Path_232985" data-name="Path 232985" d="M1069.162,536.121c-20.947-10.62-28.966-15.96-37.266-24.29,1.04-11.393,5.249-21.72,11.673-31.287,1.088,9.768,5.826,37.4,25.592,55.577" transform="translate(1024.525 432.565)" fill="#1a428a"/>
        <path id="Path_232986" data-name="Path 232986" d="M1181.345,430.573l1.346,1.783c11.113,15.961,6.175,43.192.634,59.957-9.969,30.2-87.018,74.851-112.733,95.208-20.973,16.594-62.653,52.593-30.216,89.343.992,1.115,2.041,2.242,3.159,3.387h.014c1.036-11.389,5.249-21.716,11.669-31.287,27.87-41.457,96.606-69.755,131.9-109.975,18.775-21.393,29.662-77.779-5.773-108.415" transform="translate(1012.873 264.145)" fill="#1a428a"/>
        <path id="Path_232987" data-name="Path 232987" d="M1036.572,539.547c-20.947-10.62-28.967-15.96-37.266-24.29,1.04-11.394,5.249-21.721,11.677-31.287,1.084,9.772,5.821,37.4,25.588,55.578" transform="translate(914.685 444.108)" fill="#1a428a"/>
        <path id="Path_232988" data-name="Path 232988" d="M1148.756,434l1.346,1.779c11.114,15.961,6.18,43.2.638,59.961-9.973,30.2-87.022,74.851-112.733,95.208-20.978,16.594-62.653,52.588-30.221,89.339.992,1.115,2.041,2.246,3.16,3.391h.013c1.036-11.389,5.249-21.721,11.673-31.287,27.865-41.457,96.6-69.759,131.9-109.975,18.775-21.4,29.667-77.779-5.772-108.415" transform="translate(903.037 275.689)" fill="#1a428a"/>
        <path id="Path_232989" data-name="Path 232989" d="M1003.98,542.972c-20.947-10.62-28.971-15.96-37.262-24.29,1.036-11.394,5.24-21.721,11.668-31.287,1.084,9.768,5.826,37.4,25.593,55.578" transform="translate(804.853 455.652)" fill="#1a428a"/>
        <path id="Path_232990" data-name="Path 232990" d="M1116.166,437.422l1.346,1.779c11.114,15.965,6.18,43.2.638,59.961-9.973,30.208-87.022,74.851-112.733,95.208-20.978,16.594-62.653,52.588-30.221,89.339.992,1.114,2.041,2.246,3.16,3.391h.013c1.036-11.389,5.249-21.716,11.673-31.287,27.865-41.457,96.6-69.759,131.9-109.975,18.771-21.389,29.662-77.779-5.777-108.415" transform="translate(793.198 287.229)" fill="#1a428a"/>
        <path id="Path_232991" data-name="Path 232991" d="M971.393,546.4c-20.947-10.62-28.967-15.961-37.266-24.291,1.04-11.393,5.249-21.72,11.677-31.287,1.084,9.772,5.821,37.4,25.588,55.578" transform="translate(695.01 467.192)" fill="#1a428a"/>
        <path id="Path_232992" data-name="Path 232992" d="M1083.576,440.848l1.346,1.783c11.114,15.956,6.18,43.188.634,59.957-9.969,30.2-87.018,74.851-112.733,95.208-20.973,16.594-62.649,52.588-30.217,89.338.992,1.115,2.041,2.246,3.16,3.391h.013c1.036-11.393,5.249-21.72,11.673-31.287,27.865-41.457,96.6-69.76,131.9-109.98,18.775-21.393,29.666-77.775-5.773-108.411" transform="translate(683.362 298.776)" fill="#1a428a"/>
        <path id="Path_232993" data-name="Path 232993" d="M1050.986,444.272l1.346,1.779c11.114,15.96,6.18,43.2.638,59.961-9.973,30.2-87.022,74.851-112.733,95.208-20.978,16.594-62.653,52.588-30.221,89.339q1.488,1.672,3.155,3.391h.018c1.036-11.389,5.249-21.716,11.673-31.287,27.865-41.457,96.6-69.76,131.9-109.975,18.77-21.393,29.661-77.779-5.778-108.415" transform="translate(573.522 310.316)" fill="#1a428a"/>
        <path id="Path_232994" data-name="Path 232994" d="M1018.4,447.7l1.346,1.779c11.114,15.965,6.175,43.2.634,59.961-9.969,30.2-87.018,74.851-112.733,95.208-20.973,16.594-62.653,52.593-30.217,89.343q1.488,1.671,3.155,3.391h.017c1.036-11.394,5.249-21.721,11.673-31.292,27.865-41.457,96.6-69.755,131.9-109.975,18.775-21.393,29.666-77.779-5.773-108.415" transform="translate(463.685 321.859)" fill="#1a428a"/>
        <path id="Path_232995" data-name="Path 232995" d="M985.809,451.122l1.346,1.779c11.114,15.96,6.18,43.2.638,59.961-9.973,30.2-87.022,74.851-112.733,95.208-20.978,16.594-62.653,52.588-30.221,89.338.992,1.115,2.041,2.246,3.16,3.392h.013c1.036-11.389,5.249-21.721,11.673-31.288,27.865-41.457,96.6-69.759,131.9-109.975,18.771-21.4,29.662-77.779-5.777-108.415" transform="translate(353.85 333.403)" fill="#1a428a"/>
        <path id="Path_232996" data-name="Path 232996" d="M953.221,454.547l1.346,1.779c11.114,15.96,6.175,43.2.634,59.961-9.969,30.2-87.018,74.851-112.733,95.208-20.973,16.594-62.653,52.593-30.217,89.338q1.488,1.672,3.156,3.391h.017c1.036-11.389,5.249-21.716,11.669-31.287,27.87-41.457,96.607-69.759,131.9-109.975,18.775-21.393,29.666-77.779-5.773-108.415" transform="translate(244.012 344.946)" fill="#1a428a"/>
        <path id="Path_232997" data-name="Path 232997" d="M920.631,457.972l1.346,1.783c11.114,15.956,6.18,43.188.638,59.957-9.973,30.2-87.022,74.851-112.737,95.208-20.973,16.594-62.653,52.588-30.217,89.338.992,1.115,2.041,2.247,3.159,3.391h.013c1.036-11.393,5.249-21.72,11.673-31.287,27.865-41.457,96.6-69.76,131.9-109.979,18.775-21.393,29.666-77.775-5.773-108.411" transform="translate(134.173 356.489)" fill="#1a428a"/>
        <path id="Path_232998" data-name="Path 232998" d="M888.04,461.4l1.346,1.779c11.114,15.961,6.18,43.2.638,59.961-9.973,30.2-87.022,74.851-112.733,95.208-20.978,16.594-62.653,52.589-30.221,89.339q1.488,1.672,3.155,3.391h.017c1.036-11.389,5.249-21.716,11.673-31.287,27.865-41.457,96.6-69.76,131.9-109.975,18.771-21.393,29.662-77.779-5.778-108.415" transform="translate(24.338 368.033)" fill="#1a428a"/>
        <path id="Path_232999" data-name="Path 232999" d="M855.453,464.821,856.8,466.6c11.114,15.965,6.18,43.2.634,59.961-9.969,30.2-87.018,74.851-112.733,95.208-20.973,16.594-62.653,52.593-30.217,89.343q1.488,1.672,3.156,3.391h.017c1.036-11.394,5.249-21.721,11.673-31.292,27.865-41.457,96.6-69.755,131.9-109.975,18.775-21.393,29.666-77.779-5.773-108.415" transform="translate(-85.499 379.573)" fill="#1a428a"/>
        <path id="Path_233000" data-name="Path 233000" d="M822.861,468.246l1.346,1.779c11.114,15.96,6.18,43.2.638,59.961-9.973,30.2-87.022,74.851-112.733,95.208-20.978,16.594-62.653,52.588-30.221,89.338q1.488,1.672,3.156,3.391h.018c1.036-11.389,5.249-21.72,11.673-31.287,27.865-41.457,96.6-69.759,131.9-109.975,18.771-21.393,29.662-77.779-5.778-108.415" transform="translate(-195.337 391.116)" fill="#1a428a"/>
        <path id="Path_233001" data-name="Path 233001" d="M790.274,471.671l1.346,1.779c11.114,15.96,6.176,43.2.634,59.961-9.969,30.2-87.018,74.851-112.733,95.208-20.973,16.594-62.653,52.593-30.217,89.339.992,1.115,2.041,2.246,3.16,3.391h.013c1.036-11.389,5.249-21.717,11.673-31.287,27.865-41.457,96.6-69.76,131.9-109.975,18.775-21.393,29.666-77.779-5.773-108.415" transform="translate(-305.175 402.66)" fill="#1a428a"/>
        <path id="Path_233002" data-name="Path 233002" d="M757.688,475.1l1.346,1.779c11.109,15.96,6.18,43.192.638,59.961-9.973,30.2-87.022,74.851-112.733,95.208-20.982,16.594-62.662,52.588-30.225,89.339q1.488,1.672,3.164,3.391h.009c1.036-11.393,5.249-21.721,11.677-31.287,27.861-41.457,96.6-69.76,131.9-109.98,18.771-21.393,29.661-77.775-5.773-108.411" transform="translate(-415.014 414.203)" fill="#1a428a"/>
        <path id="Path_233003" data-name="Path 233003" d="M725.095,478.521l1.346,1.779c11.114,15.96,6.175,43.2.634,59.961-9.969,30.2-87.018,74.851-112.733,95.208-20.973,16.594-62.653,52.588-30.217,89.339q1.488,1.671,3.155,3.391h.018c1.036-11.389,5.249-21.716,11.669-31.287,27.87-41.457,96.606-69.759,131.9-109.975,18.775-21.393,29.666-77.779-5.773-108.415" transform="translate(-524.85 425.747)" fill="#1a428a"/>
        <path id="Path_233004" data-name="Path 233004" d="M1249.885,467.1c-20.947-10.62-28.966-15.96-37.266-24.29,1.04-11.393,5.253-21.721,11.677-31.287,1.084,9.768,5.822,37.4,25.588,55.578" transform="translate(1633.626 199.954)" fill="#1a428a"/>
        <path id="Path_233005" data-name="Path 233005" d="M1362.071,361.556l1.346,1.783c11.114,15.956,6.18,43.192.638,59.957-9.973,30.2-87.022,74.851-112.732,95.208-20.982,16.594-62.658,52.588-30.221,89.339q1.488,1.672,3.155,3.391h.018c1.036-11.389,5.249-21.716,11.673-31.287,27.865-41.457,96.6-69.759,131.9-109.975,18.774-21.393,29.661-77.779-5.773-108.415" transform="translate(1621.976 31.535)" fill="#1a428a"/>
        <path id="Path_233006" data-name="Path 233006" d="M1217.293,470.529c-20.943-10.62-28.966-15.96-37.262-24.29,1.036-11.393,5.249-21.72,11.673-31.287,1.084,9.772,5.821,37.4,25.588,55.578" transform="translate(1523.794 211.494)" fill="#1a428a"/>
        <path id="Path_233007" data-name="Path 233007" d="M1329.482,364.98l1.346,1.783c11.109,15.96,6.175,43.192.638,59.957-9.973,30.2-87.022,74.851-112.738,95.208-20.977,16.594-62.648,52.593-30.22,89.343.992,1.115,2.041,2.242,3.159,3.391h.013c1.036-11.393,5.249-21.721,11.678-31.292,27.861-41.457,96.6-69.755,131.9-109.975,18.771-21.393,29.657-77.779-5.773-108.415" transform="translate(1512.14 43.075)" fill="#1a428a"/>
        <path id="Path_233008" data-name="Path 233008" d="M1184.708,473.954c-20.947-10.62-28.967-15.96-37.266-24.29,1.04-11.394,5.253-21.721,11.677-31.287,1.084,9.768,5.822,37.4,25.588,55.578" transform="translate(1413.954 223.041)" fill="#1a428a"/>
        <path id="Path_233009" data-name="Path 233009" d="M1296.891,368.4l1.346,1.783c11.113,15.956,6.179,43.192.634,59.957-9.969,30.2-87.018,74.851-112.733,95.208-20.973,16.594-62.648,52.588-30.217,89.339.992,1.114,2.041,2.246,3.16,3.391h.013c1.036-11.389,5.249-21.716,11.673-31.287,27.865-41.457,96.6-69.759,131.9-109.975,18.775-21.393,29.666-77.779-5.773-108.415" transform="translate(1402.302 54.618)" fill="#1a428a"/>
        <path id="Path_233010" data-name="Path 233010" d="M1152.114,477.379c-20.943-10.62-28.967-15.961-37.262-24.29,1.036-11.393,5.249-21.721,11.673-31.287,1.083,9.768,5.821,37.4,25.588,55.578" transform="translate(1304.119 234.581)" fill="#1a428a"/>
        <path id="Path_233011" data-name="Path 233011" d="M1264.3,371.83l1.346,1.779c11.118,15.961,6.18,43.2.638,59.961-9.973,30.2-87.022,74.851-112.733,95.208-20.978,16.594-62.653,52.593-30.221,89.343.992,1.114,2.041,2.242,3.16,3.387h.013c1.036-11.389,5.249-21.716,11.673-31.287,27.865-41.457,96.6-69.755,131.9-109.975,18.771-21.393,29.662-77.779-5.777-108.415" transform="translate(1292.467 66.161)" fill="#1a428a"/>
        <path id="Path_233012" data-name="Path 233012" d="M1119.529,480.8c-20.948-10.62-28.967-15.961-37.267-24.29,1.041-11.393,5.249-21.721,11.678-31.287,1.083,9.772,5.821,37.4,25.588,55.578" transform="translate(1194.279 246.124)" fill="#1a428a"/>
        <path id="Path_233013" data-name="Path 233013" d="M1231.714,375.255l1.347,1.783c11.114,15.956,6.175,43.188.633,59.957-9.969,30.2-87.018,74.851-112.733,95.208-20.974,16.594-62.653,52.588-30.217,89.339q1.488,1.672,3.156,3.391h.018c1.036-11.393,5.249-21.721,11.673-31.287,27.865-41.457,96.6-69.76,131.9-109.975,18.775-21.4,29.666-77.779-5.773-108.415" transform="translate(1182.629 77.705)" fill="#1a428a"/>
        <path id="Path_233014" data-name="Path 233014" d="M1086.936,484.229c-20.952-10.62-28.967-15.961-37.262-24.29,1.031-11.393,5.245-21.721,11.669-31.287,1.088,9.768,5.821,37.4,25.593,55.578" transform="translate(1084.447 257.668)" fill="#1a428a"/>
        <path id="Path_233015" data-name="Path 233015" d="M1199.124,378.68l1.346,1.779c11.114,15.961,6.18,43.2.638,59.961-9.973,30.2-87.022,74.851-112.732,95.208-20.982,16.594-62.658,52.588-30.221,89.338q1.481,1.672,3.156,3.391h.017c1.036-11.389,5.249-21.716,11.673-31.287,27.865-41.457,96.6-69.759,131.9-109.975,18.771-21.393,29.657-77.779-5.778-108.415" transform="translate(1072.789 89.248)" fill="#1a428a"/>
        <path id="Path_233016" data-name="Path 233016" d="M1054.346,487.654c-20.943-10.62-28.962-15.961-37.261-24.29,1.036-11.394,5.244-21.72,11.673-31.287,1.084,9.772,5.821,37.4,25.588,55.578" transform="translate(974.607 269.211)" fill="#1a428a"/>
        <path id="Path_233017" data-name="Path 233017" d="M1166.535,382.1l1.346,1.779c11.114,15.961,6.176,43.192.634,59.961-9.969,30.2-87.018,74.851-112.733,95.208-20.973,16.594-62.653,52.588-30.216,89.339q1.488,1.672,3.155,3.391h.018c1.036-11.394,5.249-21.72,11.668-31.287,27.87-41.457,96.606-69.759,131.9-109.979,18.775-21.393,29.662-77.775-5.773-108.411" transform="translate(962.953 100.792)" fill="#1a428a"/>
        <path id="Path_233018" data-name="Path 233018" d="M1021.76,491.078c-20.947-10.62-28.966-15.96-37.266-24.29,1.04-11.394,5.253-21.721,11.678-31.287,1.083,9.768,5.821,37.4,25.588,55.578" transform="translate(864.767 280.755)" fill="#1a428a"/>
        <path id="Path_233019" data-name="Path 233019" d="M1133.944,385.53l1.346,1.783c11.114,15.956,6.18,43.192.638,59.957-9.973,30.2-87.022,74.851-112.737,95.208-20.974,16.594-62.649,52.589-30.217,89.339.992,1.115,2.041,2.246,3.16,3.391h.013c1.036-11.389,5.249-21.716,11.673-31.287,27.865-41.457,96.6-69.759,131.9-109.975,18.775-21.393,29.666-77.779-5.773-108.415" transform="translate(853.119 112.335)" fill="#1a428a"/>
        <path id="Path_233020" data-name="Path 233020" d="M989.167,494.5c-20.942-10.62-28.966-15.96-37.261-24.29,1.036-11.394,5.244-21.721,11.673-31.287,1.084,9.768,5.821,37.4,25.588,55.578" transform="translate(754.931 292.294)" fill="#1a428a"/>
        <path id="Path_233021" data-name="Path 233021" d="M1101.354,388.954l1.346,1.783c11.114,15.961,6.18,43.192.638,59.957-9.973,30.2-87.022,74.851-112.733,95.208-20.978,16.594-62.653,52.593-30.221,89.343q1.488,1.672,3.156,3.387h.018c1.036-11.389,5.249-21.716,11.673-31.287,27.865-41.457,96.6-69.755,131.9-109.975,18.771-21.393,29.662-77.779-5.778-108.415" transform="translate(743.279 123.875)" fill="#1a428a"/>
        <path id="Path_233022" data-name="Path 233022" d="M956.582,497.927c-20.947-10.62-28.967-15.96-37.266-24.29,1.04-11.393,5.249-21.721,11.677-31.287,1.084,9.772,5.822,37.4,25.589,55.578" transform="translate(645.091 303.838)" fill="#1a428a"/>
        <path id="Path_233023" data-name="Path 233023" d="M1068.767,392.379l1.346,1.779c11.114,15.96,6.179,43.2.633,59.961-9.969,30.2-87.018,74.851-112.733,95.208-20.973,16.594-62.653,52.589-30.217,89.339.992,1.115,2.041,2.246,3.16,3.391h.013c1.036-11.389,5.249-21.721,11.673-31.287,27.865-41.457,96.6-69.759,131.9-109.975,18.775-21.4,29.666-77.779-5.773-108.415" transform="translate(633.442 135.419)" fill="#1a428a"/>
        <path id="Path_233024" data-name="Path 233024" d="M923.99,501.353c-20.943-10.62-28.967-15.96-37.262-24.29,1.036-11.393,5.249-21.721,11.673-31.287,1.084,9.768,5.822,37.4,25.589,55.578" transform="translate(535.259 315.381)" fill="#1a428a"/>
        <path id="Path_233025" data-name="Path 233025" d="M1036.178,395.8l1.342,1.779c11.114,15.96,6.179,43.2.638,59.961-9.969,30.2-87.022,74.851-112.729,95.208-20.982,16.594-62.653,52.588-30.225,89.339q1.488,1.672,3.156,3.391h.017c1.036-11.389,5.249-21.716,11.673-31.287,27.865-41.457,96.606-69.759,131.9-109.975,18.771-21.393,29.662-77.779-5.773-108.415" transform="translate(523.605 146.962)" fill="#1a428a"/>
        <path id="Path_233026" data-name="Path 233026" d="M891.4,504.777c-20.947-10.62-28.967-15.96-37.266-24.29,1.04-11.393,5.249-21.721,11.677-31.287,1.084,9.772,5.822,37.4,25.588,55.578" transform="translate(425.419 326.925)" fill="#1a428a"/>
        <path id="Path_233027" data-name="Path 233027" d="M1003.592,399.229l1.346,1.779c11.109,15.96,6.171,43.192.629,59.961-9.964,30.2-87.013,74.851-112.733,95.208-20.973,16.594-62.653,52.588-30.217,89.339q1.488,1.672,3.155,3.391h.018c1.036-11.393,5.249-21.721,11.677-31.287,27.861-41.457,96.6-69.759,131.9-109.98,18.771-21.393,29.661-77.775-5.773-108.411" transform="translate(413.766 158.505)" fill="#1a428a"/>
        <path id="Path_233028" data-name="Path 233028" d="M858.814,508.2c-20.947-10.62-28.967-15.96-37.266-24.29,1.041-11.393,5.249-21.721,11.678-31.287,1.084,9.768,5.821,37.4,25.588,55.578" transform="translate(315.58 338.468)" fill="#1a428a"/>
        <path id="Path_233029" data-name="Path 233029" d="M971,402.654l1.346,1.779c11.114,15.96,6.18,43.2.638,59.961C963.01,494.6,885.96,539.245,860.25,559.6c-20.978,16.594-62.657,52.588-30.221,89.339q1.488,1.672,3.155,3.391h.018c1.036-11.389,5.249-21.716,11.673-31.287,27.865-41.457,96.6-69.759,131.9-109.975,18.771-21.393,29.661-77.779-5.778-108.415" transform="translate(303.931 170.049)" fill="#1a428a"/>
        <path id="Path_233030" data-name="Path 233030" d="M826.221,511.627c-20.943-10.62-28.962-15.96-37.261-24.29,1.036-11.394,5.249-21.721,11.673-31.287,1.084,9.768,5.821,37.4,25.588,55.578" transform="translate(205.747 350.012)" fill="#1a428a"/>
        <path id="Path_233031" data-name="Path 233031" d="M938.41,406.078l1.346,1.783c11.114,15.961,6.175,43.192.634,59.957-9.969,30.2-87.018,74.851-112.733,95.208C806.68,579.62,765,615.618,797.441,652.369q1.488,1.671,3.155,3.387h.018c1.036-11.389,5.249-21.716,11.669-31.287,27.87-41.457,96.606-69.755,131.9-109.975,18.775-21.393,29.666-77.779-5.773-108.415" transform="translate(194.094 181.589)" fill="#1a428a"/>
        <path id="Path_233032" data-name="Path 233032" d="M793.635,515.052c-20.947-10.62-28.967-15.96-37.266-24.29,1.04-11.393,5.249-21.721,11.677-31.287,1.084,9.772,5.822,37.4,25.588,55.578" transform="translate(95.908 361.552)" fill="#1a428a"/>
        <path id="Path_233033" data-name="Path 233033" d="M905.82,409.5l1.346,1.779c11.114,15.96,6.18,43.2.638,59.961-9.973,30.2-87.022,74.851-112.738,95.208-20.973,16.594-62.653,52.588-30.217,89.339.992,1.114,2.041,2.246,3.16,3.391h.013c1.036-11.389,5.249-21.721,11.673-31.287,27.865-41.457,96.6-69.76,131.9-109.975,18.775-21.4,29.666-77.779-5.773-108.415" transform="translate(84.255 193.136)" fill="#1a428a"/>
        <path id="Path_233034" data-name="Path 233034" d="M761.042,518.477c-20.943-10.62-28.967-15.96-37.261-24.29,1.036-11.394,5.244-21.721,11.673-31.287,1.084,9.768,5.821,37.4,25.588,55.578" transform="translate(-13.928 373.095)" fill="#1a428a"/>
        <path id="Path_233035" data-name="Path 233035" d="M873.229,412.928l1.346,1.783c11.114,15.956,6.179,43.192.638,59.957-9.973,30.2-87.022,74.851-112.733,95.208-20.978,16.594-62.653,52.588-30.221,89.339.992,1.114,2.041,2.246,3.16,3.391h.013c1.036-11.389,5.249-21.716,11.673-31.287,27.865-41.457,96.6-69.759,131.9-109.975,18.771-21.393,29.661-77.779-5.778-108.415" transform="translate(-25.58 204.676)" fill="#1a428a"/>
        <path id="Path_233036" data-name="Path 233036" d="M728.457,521.9c-20.947-10.62-28.967-15.96-37.266-24.29,1.04-11.393,5.253-21.721,11.678-31.287,1.084,9.772,5.821,37.4,25.588,55.578" transform="translate(-123.767 384.639)" fill="#1a428a"/>
        <path id="Path_233037" data-name="Path 233037" d="M840.642,416.353l1.346,1.783c11.114,15.956,6.179,43.188.634,59.957-9.969,30.2-87.018,74.851-112.733,95.208-20.973,16.594-62.653,52.588-30.217,89.338q1.488,1.672,3.155,3.391h.018c1.036-11.393,5.249-21.721,11.673-31.287,27.865-41.457,96.6-69.759,131.9-109.98,18.775-21.393,29.666-77.775-5.773-108.411" transform="translate(-135.418 216.219)" fill="#1a428a"/>
        <path id="Path_233038" data-name="Path 233038" d="M695.864,525.327c-20.943-10.62-28.967-15.96-37.262-24.29,1.036-11.394,5.245-21.721,11.673-31.287,1.084,9.768,5.821,37.4,25.588,55.578" transform="translate(-233.604 396.182)" fill="#1a428a"/>
        <path id="Path_233039" data-name="Path 233039" d="M808.051,419.778l1.346,1.779c11.114,15.961,6.18,43.2.638,59.961-9.973,30.2-87.022,74.851-112.733,95.208-20.978,16.594-62.653,52.588-30.221,89.339.992,1.114,2.041,2.246,3.16,3.391h.013c1.036-11.389,5.249-21.716,11.673-31.287,27.865-41.457,96.6-69.759,131.9-109.975,18.771-21.393,29.662-77.779-5.777-108.415" transform="translate(-245.255 227.763)" fill="#1a428a"/>
        <path id="Path_233040" data-name="Path 233040" d="M663.278,528.752c-20.947-10.62-28.967-15.96-37.266-24.29,1.04-11.394,5.249-21.721,11.673-31.287,1.088,9.768,5.826,37.4,25.593,55.578" transform="translate(-343.443 407.725)" fill="#1a428a"/>
        <path id="Path_233041" data-name="Path 233041" d="M775.463,423.2l1.346,1.779c11.114,15.965,6.175,43.2.634,59.961-9.969,30.2-87.018,74.851-112.733,95.208-20.973,16.594-62.653,52.593-30.217,89.343q1.488,1.671,3.155,3.387h.018c1.036-11.389,5.249-21.716,11.669-31.287,27.87-41.457,96.606-69.755,131.9-109.975,18.775-21.393,29.666-77.779-5.773-108.415" transform="translate(-355.093 239.306)" fill="#1a428a"/>
        <path id="Path_233042" data-name="Path 233042" d="M630.689,532.177c-20.947-10.62-28.967-15.961-37.266-24.291,1.04-11.393,5.249-21.72,11.677-31.287,1.084,9.772,5.822,37.4,25.589,55.578" transform="translate(-453.279 419.269)" fill="#1a428a"/>
        <path id="Path_233043" data-name="Path 233043" d="M742.874,426.628l1.346,1.779c11.114,15.96,6.18,43.2.638,59.961-9.973,30.2-87.022,74.851-112.733,95.208-20.978,16.594-62.657,52.588-30.221,89.339q1.488,1.672,3.156,3.391h.018c1.036-11.389,5.249-21.72,11.673-31.287,27.865-41.457,96.6-69.76,131.9-109.975,18.775-21.4,29.666-77.779-5.773-108.415" transform="translate(-464.929 250.849)" fill="#1a428a"/>
        <path id="Path_233044" data-name="Path 233044" d="M598.1,535.6c-20.943-10.62-28.967-15.96-37.262-24.29,1.036-11.394,5.245-21.72,11.673-31.287,1.084,9.768,5.821,37.4,25.588,55.578" transform="translate(-563.115 430.812)" fill="#1a428a"/>
        <path id="Path_233045" data-name="Path 233045" d="M710.283,430.052l1.346,1.783c11.114,15.956,6.18,43.192.638,59.957C702.294,522,625.245,566.643,599.534,587c-20.978,16.594-62.653,52.588-30.221,89.339q1.488,1.672,3.156,3.391h.017c1.036-11.389,5.249-21.716,11.673-31.287,27.865-41.457,96.6-69.759,131.9-109.975,18.771-21.393,29.662-77.779-5.777-108.415" transform="translate(-574.767 262.389)" fill="#1a428a"/>
        <path id="Path_233046" data-name="Path 233046" d="M1235.075,418.635c-20.948-10.62-28.967-15.96-37.267-24.29,1.041-11.394,5.249-21.721,11.678-31.287,1.084,9.768,5.821,37.4,25.589,55.578" transform="translate(1583.708 36.597)" fill="#1a428a"/>
        <path id="Path_233047" data-name="Path 233047" d="M1347.26,313.087l1.346,1.783c11.114,15.956,6.18,43.192.638,59.957-9.973,30.2-87.022,74.851-112.737,95.208-20.978,16.594-62.653,52.593-30.217,89.339q1.482,1.672,3.156,3.391h.018c1.036-11.389,5.249-21.716,11.673-31.287,27.866-41.457,96.6-69.759,131.9-109.975,18.775-21.393,29.662-77.779-5.773-108.415" transform="translate(1572.058 -131.823)" fill="#1a428a"/>
        <path id="Path_233048" data-name="Path 233048" d="M1202.482,422.061c-20.942-10.62-28.966-15.961-37.262-24.29,1.036-11.393,5.249-21.721,11.673-31.287,1.084,9.772,5.822,37.4,25.588,55.578" transform="translate(1473.876 48.14)" fill="#1a428a"/>
        <path id="Path_233049" data-name="Path 233049" d="M1314.668,316.512l1.346,1.783c11.113,15.956,6.18,43.188.638,59.957-9.973,30.2-87.022,74.851-112.732,95.208-20.978,16.594-62.653,52.588-30.221,89.339.992,1.114,2.041,2.246,3.16,3.391h.013c1.036-11.393,5.249-21.721,11.673-31.287,27.865-41.457,96.6-69.759,131.9-109.98,18.77-21.393,29.661-77.775-5.778-108.411" transform="translate(1462.221 -120.279)" fill="#1a428a"/>
        <path id="Path_233050" data-name="Path 233050" d="M1169.9,425.486c-20.947-10.62-28.966-15.961-37.266-24.29,1.041-11.393,5.249-21.721,11.678-31.287,1.084,9.768,5.821,37.4,25.588,55.578" transform="translate(1364.036 59.684)" fill="#1a428a"/>
        <path id="Path_233051" data-name="Path 233051" d="M1282.079,319.937l1.346,1.779c11.118,15.961,6.18,43.2.634,59.961-9.969,30.2-87.018,74.851-112.733,95.208-20.973,16.594-62.649,52.588-30.216,89.339.992,1.114,2.041,2.246,3.16,3.391h.013c1.036-11.389,5.249-21.716,11.673-31.287,27.865-41.457,96.6-69.759,131.9-109.975,18.775-21.393,29.666-77.779-5.773-108.415" transform="translate(1352.385 -108.736)" fill="#1a428a"/>
        <path id="Path_233052" data-name="Path 233052" d="M1137.3,428.911c-20.942-10.62-28.967-15.96-37.261-24.29,1.036-11.393,5.244-21.721,11.673-31.287,1.084,9.772,5.821,37.4,25.588,55.578" transform="translate(1254.2 71.227)" fill="#1a428a"/>
        <path id="Path_233053" data-name="Path 233053" d="M1249.49,323.362l1.346,1.779c11.113,15.965,6.179,43.2.638,59.961-9.973,30.2-87.022,74.851-112.733,95.208-20.978,16.594-62.653,52.593-30.221,89.343q1.488,1.671,3.155,3.391h.018c1.036-11.394,5.249-21.721,11.673-31.292,27.865-41.457,96.6-69.755,131.9-109.975,18.77-21.393,29.661-77.779-5.778-108.415" transform="translate(1242.549 -97.192)" fill="#1a428a"/>
        <path id="Path_233054" data-name="Path 233054" d="M1104.718,432.331c-20.947-10.62-28.967-15.956-37.266-24.286,1.04-11.394,5.253-21.721,11.677-31.287,1.083,9.768,5.822,37.4,25.588,55.573" transform="translate(1144.36 82.77)" fill="#1a428a"/>
        <path id="Path_233055" data-name="Path 233055" d="M1216.9,326.787l1.346,1.779c11.114,15.961,6.175,43.2.634,59.961-9.969,30.2-87.018,74.851-112.733,95.208-20.978,16.594-62.653,52.588-30.216,89.338q1.481,1.672,3.155,3.391h.018c1.036-11.389,5.249-21.721,11.673-31.287,27.865-41.457,96.6-69.759,131.9-109.975,18.775-21.393,29.662-77.779-5.772-108.415" transform="translate(1132.711 -85.649)" fill="#1a428a"/>
        <path id="Path_233056" data-name="Path 233056" d="M1072.129,435.76c-20.947-10.62-28.967-15.961-37.266-24.29,1.04-11.394,5.253-21.721,11.678-31.287,1.083,9.768,5.821,37.4,25.588,55.578" transform="translate(1034.525 94.314)" fill="#1a428a"/>
        <path id="Path_233057" data-name="Path 233057" d="M1184.313,330.211l1.347,1.779c11.114,15.96,6.179,43.2.638,59.961-9.974,30.2-87.022,74.851-112.733,95.208-20.982,16.594-62.658,52.593-30.221,89.339q1.482,1.672,3.156,3.391h.018c1.036-11.389,5.249-21.716,11.673-31.287,27.865-41.457,96.6-69.759,131.9-109.975,18.771-21.393,29.657-77.779-5.778-108.415" transform="translate(1022.871 -74.109)" fill="#1a428a"/>
        <path id="Path_233058" data-name="Path 233058" d="M1039.535,439.185c-20.943-10.62-28.962-15.961-37.262-24.291,1.036-11.393,5.245-21.721,11.673-31.287,1.084,9.772,5.821,37.4,25.588,55.578" transform="translate(924.689 105.854)" fill="#1a428a"/>
        <path id="Path_233059" data-name="Path 233059" d="M1151.724,333.637l1.347,1.779c11.113,15.961,6.175,43.192.633,59.961-9.969,30.2-87.018,74.851-112.732,95.208-20.978,16.594-62.653,52.588-30.217,89.338q1.488,1.672,3.156,3.391h.017c1.036-11.393,5.249-21.721,11.669-31.287,27.87-41.457,96.606-69.759,131.9-109.98,18.775-21.393,29.662-77.775-5.773-108.411" transform="translate(913.035 -62.562)" fill="#1a428a"/>
        <path id="Path_233060" data-name="Path 233060" d="M1006.949,442.609c-20.947-10.62-28.966-15.96-37.266-24.29,1.04-11.393,5.249-21.721,11.678-31.287,1.083,9.768,5.821,37.4,25.588,55.578" transform="translate(814.849 117.397)" fill="#1a428a"/>
        <path id="Path_233061" data-name="Path 233061" d="M1119.133,337.061l1.346,1.783c11.113,15.956,6.18,43.192.638,59.957-9.973,30.2-87.022,74.851-112.737,95.208-20.973,16.594-62.648,52.589-30.216,89.339.992,1.115,2.041,2.246,3.16,3.391h.013c1.036-11.389,5.249-21.716,11.673-31.287,27.865-41.457,96.6-69.759,131.9-109.975,18.775-21.393,29.666-77.779-5.773-108.415" transform="translate(803.201 -51.022)" fill="#1a428a"/>
        <path id="Path_233062" data-name="Path 233062" d="M974.357,446.035c-20.947-10.62-28.971-15.96-37.261-24.29,1.036-11.393,5.249-21.721,11.669-31.287,1.083,9.772,5.826,37.4,25.593,55.578" transform="translate(705.016 128.941)" fill="#1a428a"/>
        <path id="Path_233063" data-name="Path 233063" d="M1086.543,340.486l1.346,1.779c11.114,15.965,6.18,43.2.638,59.961-9.973,30.2-87.022,74.851-112.733,95.208-20.978,16.594-62.653,52.593-30.221,89.343q1.488,1.672,3.155,3.391h.017c1.036-11.393,5.249-21.721,11.673-31.292,27.865-41.457,96.6-69.755,131.9-109.975,18.771-21.393,29.662-77.779-5.778-108.415" transform="translate(693.361 -39.479)" fill="#1a428a"/>
        <path id="Path_233064" data-name="Path 233064" d="M941.771,449.46c-20.947-10.62-28.967-15.96-37.266-24.29,1.04-11.393,5.249-21.72,11.677-31.287,1.084,9.768,5.821,37.4,25.588,55.578" transform="translate(595.174 140.484)" fill="#1a428a"/>
        <path id="Path_233065" data-name="Path 233065" d="M1053.956,343.911l1.346,1.783c11.114,15.956,6.179,43.192.634,59.957-9.969,30.2-87.018,74.851-112.733,95.208-20.973,16.594-62.653,52.588-30.216,89.339.992,1.114,2.041,2.246,3.16,3.391h.013c1.036-11.389,5.249-21.72,11.673-31.287,27.865-41.457,96.6-69.759,131.9-109.975,18.775-21.393,29.666-77.779-5.773-108.415" transform="translate(583.524 -27.935)" fill="#1a428a"/>
        <path id="Path_233066" data-name="Path 233066" d="M909.178,452.885c-20.943-10.62-28.967-15.96-37.262-24.29,1.036-11.393,5.249-21.721,11.673-31.287,1.084,9.768,5.821,37.4,25.588,55.578" transform="translate(485.341 152.028)" fill="#1a428a"/>
        <path id="Path_233067" data-name="Path 233067" d="M1021.364,347.336l1.346,1.779c11.114,15.96,6.18,43.2.638,59.961-9.973,30.2-87.022,74.851-112.733,95.208-20.978,16.594-62.653,52.593-30.221,89.343q1.488,1.665,3.156,3.387h.018c1.036-11.389,5.249-21.716,11.673-31.287,27.865-41.457,96.6-69.755,131.9-109.975,18.771-21.393,29.661-77.779-5.778-108.415" transform="translate(473.686 -16.392)" fill="#1a428a"/>
        <path id="Path_233068" data-name="Path 233068" d="M876.593,456.305c-20.947-10.62-28.967-15.956-37.266-24.286,1.04-11.393,5.253-21.721,11.673-31.287,1.088,9.768,5.826,37.4,25.593,55.573" transform="translate(375.501 163.571)" fill="#1a428a"/>
        <path id="Path_233069" data-name="Path 233069" d="M988.777,350.761l1.346,1.779c11.114,15.961,6.175,43.192.634,59.961-9.969,30.2-87.018,74.851-112.733,95.208-20.973,16.594-62.653,52.588-30.217,89.339.992,1.114,2.041,2.246,3.159,3.391h.013c1.036-11.393,5.249-21.721,11.669-31.287,27.87-41.457,96.606-69.759,131.9-109.975,18.775-21.4,29.666-77.779-5.773-108.415" transform="translate(363.848 -4.848)" fill="#1a428a"/>
        <path id="Path_233070" data-name="Path 233070" d="M844,459.734c-20.947-10.62-28.967-15.961-37.266-24.29,1.04-11.393,5.249-21.721,11.678-31.287,1.084,9.768,5.821,37.4,25.588,55.578" transform="translate(265.662 175.114)" fill="#1a428a"/>
        <path id="Path_233071" data-name="Path 233071" d="M956.188,354.185l1.346,1.779c11.114,15.96,6.18,43.2.638,59.961-9.973,30.2-87.022,74.851-112.733,95.208-20.978,16.594-62.657,52.588-30.221,89.339.992,1.114,2.041,2.246,3.159,3.391h.013c1.036-11.389,5.249-21.716,11.673-31.287,27.865-41.457,96.6-69.76,131.9-109.975,18.775-21.393,29.666-77.779-5.773-108.415" transform="translate(254.013 6.692)" fill="#1a428a"/>
        <path id="Path_233072" data-name="Path 233072" d="M811.41,463.159c-20.943-10.62-28.967-15.961-37.261-24.29,1.036-11.393,5.244-21.721,11.673-31.287,1.084,9.772,5.821,37.4,25.588,55.578" transform="translate(155.829 186.655)" fill="#1a428a"/>
        <path id="Path_233073" data-name="Path 233073" d="M923.6,357.61l1.346,1.783c11.114,15.961,6.18,43.192.638,59.957-9.973,30.2-87.022,74.851-112.733,95.212-20.978,16.59-62.653,52.588-30.221,89.338.992,1.115,2.041,2.242,3.16,3.391h.013c1.036-11.393,5.253-21.721,11.673-31.292,27.865-41.457,96.6-69.755,131.9-109.975,18.771-21.393,29.662-77.779-5.778-108.415" transform="translate(144.174 18.235)" fill="#1a428a"/>
        <path id="Path_233074" data-name="Path 233074" d="M778.825,466.583c-20.947-10.62-28.967-15.96-37.266-24.29,1.04-11.394,5.249-21.721,11.677-31.287,1.084,9.768,5.821,37.4,25.588,55.578" transform="translate(45.99 198.198)" fill="#1a428a"/>
        <path id="Path_233075" data-name="Path 233075" d="M891.009,361.035l1.346,1.783c11.114,15.956,6.18,43.192.634,59.957-9.969,30.2-87.018,74.851-112.733,95.208-20.973,16.594-62.653,52.588-30.217,89.339q1.488,1.672,3.156,3.391h.018c1.036-11.389,5.249-21.716,11.673-31.287,27.865-41.457,96.6-69.759,131.9-109.975,18.775-21.393,29.666-77.779-5.773-108.415" transform="translate(34.337 29.779)" fill="#1a428a"/>
        <path id="Path_233076" data-name="Path 233076" d="M746.231,470.009c-20.943-10.62-28.967-15.961-37.261-24.29,1.036-11.394,5.244-21.721,11.673-31.287,1.084,9.768,5.822,37.4,25.588,55.578" transform="translate(-63.847 209.741)" fill="#1a428a"/>
        <path id="Path_233077" data-name="Path 233077" d="M858.418,364.46l1.346,1.783c11.114,15.96,6.18,43.192.638,59.957-9.973,30.2-87.022,74.851-112.733,95.208C726.692,538,685.016,574,717.449,610.751c.992,1.115,2.041,2.242,3.16,3.387h.013c1.036-11.389,5.249-21.716,11.673-31.287,27.865-41.457,96.6-69.755,131.9-109.975,18.771-21.393,29.661-77.779-5.778-108.415" transform="translate(-75.498 41.322)" fill="#1a428a"/>
        <path id="Path_233078" data-name="Path 233078" d="M713.646,473.434c-20.947-10.62-28.967-15.961-37.266-24.29,1.04-11.394,5.253-21.721,11.678-31.287,1.084,9.772,5.821,37.4,25.588,55.578" transform="translate(-173.686 221.285)" fill="#1a428a"/>
        <path id="Path_233079" data-name="Path 233079" d="M825.831,367.885l1.346,1.779c11.114,15.961,6.175,43.192.634,59.961-9.969,30.2-87.018,74.851-112.733,95.208-20.973,16.594-62.653,52.588-30.216,89.339.992,1.114,2.041,2.246,3.159,3.391h.013c1.036-11.394,5.249-21.721,11.673-31.287,27.865-41.457,96.6-69.759,131.9-109.975,18.775-21.4,29.666-77.779-5.773-108.415" transform="translate(-185.335 52.865)" fill="#1a428a"/>
        <path id="Path_233080" data-name="Path 233080" d="M681.053,476.858c-20.951-10.62-28.971-15.96-37.261-24.29,1.036-11.393,5.24-21.721,11.669-31.287,1.084,9.768,5.822,37.4,25.593,55.578" transform="translate(-283.519 232.828)" fill="#1a428a"/>
        <path id="Path_233081" data-name="Path 233081" d="M793.241,371.31l1.346,1.779c11.114,15.96,6.18,43.2.638,59.961-9.973,30.2-87.022,74.851-112.733,95.208-20.978,16.594-62.657,52.589-30.221,89.339.992,1.115,2.041,2.246,3.16,3.391h.013c1.036-11.389,5.249-21.716,11.673-31.287,27.865-41.457,96.6-69.759,131.9-109.975,18.771-21.393,29.662-77.779-5.778-108.415" transform="translate(-295.175 64.409)" fill="#1a428a"/>
        <path id="Path_233082" data-name="Path 233082" d="M648.464,480.279c-20.943-10.62-28.962-15.956-37.261-24.286,1.036-11.393,5.244-21.721,11.673-31.287,1.084,9.768,5.822,37.4,25.589,55.573" transform="translate(-393.358 244.372)" fill="#1a428a"/>
        <path id="Path_233083" data-name="Path 233083" d="M760.652,374.735,762,376.518c11.114,15.956,6.176,43.188.634,59.957-9.969,30.2-87.018,74.851-112.733,95.208-20.973,16.594-62.653,52.588-30.217,89.339q1.488,1.672,3.155,3.391h.018c1.036-11.393,5.249-21.721,11.669-31.287,27.87-41.457,96.606-69.759,131.9-109.98,18.775-21.393,29.666-77.775-5.773-108.411" transform="translate(-405.011 75.952)" fill="#1a428a"/>
        <path id="Path_233084" data-name="Path 233084" d="M615.878,483.708c-20.947-10.62-28.967-15.96-37.266-24.29,1.04-11.393,5.249-21.721,11.677-31.287,1.084,9.768,5.822,37.4,25.588,55.578" transform="translate(-503.197 255.915)" fill="#1a428a"/>
        <path id="Path_233085" data-name="Path 233085" d="M728.063,378.159l1.346,1.783c11.114,15.956,6.18,43.192.638,59.957-9.973,30.2-87.022,74.851-112.737,95.208-20.973,16.594-62.653,52.588-30.217,89.339q1.488,1.672,3.156,3.391h.017c1.036-11.389,5.249-21.716,11.673-31.287,27.865-41.457,96.6-69.759,131.9-109.975,18.775-21.393,29.666-77.779-5.773-108.415" transform="translate(-514.847 87.492)" fill="#1a428a"/>
        <path id="Path_233086" data-name="Path 233086" d="M583.284,487.133c-20.943-10.62-28.967-15.961-37.261-24.29,1.036-11.393,5.245-21.721,11.673-31.287,1.084,9.768,5.821,37.4,25.588,55.578" transform="translate(-613.033 267.455)" fill="#1a428a"/>
        <path id="Path_233087" data-name="Path 233087" d="M695.472,381.584l1.346,1.779c11.114,15.965,6.18,43.2.638,59.961-9.973,30.2-87.022,74.851-112.733,95.208-20.978,16.594-62.653,52.593-30.221,89.343q1.488,1.672,3.155,3.387h.018c1.036-11.389,5.249-21.716,11.673-31.287,27.865-41.457,96.6-69.755,131.9-109.975,18.771-21.393,29.661-77.779-5.778-108.415" transform="translate(-624.685 99.036)" fill="#1a428a"/>
        <path id="Path_233088" data-name="Path 233088" d="M1220.264,370.168c-20.947-10.62-28.967-15.961-37.266-24.29,1.04-11.393,5.252-21.721,11.677-31.287,1.083,9.768,5.821,37.4,25.588,55.578" transform="translate(1533.79 -126.757)" fill="#1a428a"/>
        <path id="Path_233089" data-name="Path 233089" d="M1332.45,264.619l1.346,1.779c11.114,15.965,6.18,43.2.638,59.961-9.973,30.2-87.022,74.851-112.737,95.208-20.978,16.594-62.654,52.593-30.217,89.343q1.482,1.672,3.155,3.387h.018c1.036-11.389,5.249-21.716,11.673-31.287,27.865-41.457,96.6-69.755,131.9-109.975,18.775-21.393,29.661-77.779-5.773-108.415" transform="translate(1522.14 -295.176)" fill="#1a428a"/>
        <path id="Path_233090" data-name="Path 233090" d="M1187.672,373.593c-20.943-10.62-28.967-15.961-37.262-24.29,1.036-11.394,5.249-21.721,11.673-31.287,1.083,9.772,5.821,37.4,25.588,55.578" transform="translate(1423.958 -115.214)" fill="#1a428a"/>
        <path id="Path_233091" data-name="Path 233091" d="M1299.86,268.044l1.347,1.779c11.114,15.961,6.175,43.2.638,59.961-9.973,30.2-87.022,74.851-112.733,95.208-20.982,16.594-62.653,52.588-30.225,89.339,1,1.114,2.045,2.246,3.16,3.391h.018c1.031-11.389,5.244-21.721,11.673-31.287,27.865-41.457,96.6-69.76,131.9-109.975,18.775-21.4,29.662-77.779-5.773-108.415" transform="translate(1412.303 -283.633)" fill="#1a428a"/>
        <path id="Path_233092" data-name="Path 233092" d="M1155.086,377.018c-20.947-10.62-28.967-15.961-37.266-24.29,1.04-11.393,5.249-21.721,11.677-31.287,1.084,9.768,5.822,37.4,25.589,55.578" transform="translate(1314.118 -103.67)" fill="#1a428a"/>
        <path id="Path_233093" data-name="Path 233093" d="M1267.268,271.469l1.346,1.779c11.114,15.961,6.18,43.2.634,59.961-9.969,30.2-87.018,74.851-112.733,95.208-20.974,16.594-62.649,52.588-30.217,89.338.992,1.115,2.041,2.246,3.16,3.391h.013c1.036-11.389,5.249-21.716,11.673-31.287,27.865-41.457,96.6-69.759,131.9-109.975,18.775-21.393,29.666-77.779-5.773-108.415" transform="translate(1302.467 -272.089)" fill="#1a428a"/>
        <path id="Path_233094" data-name="Path 233094" d="M1122.492,380.443c-20.943-10.62-28.966-15.961-37.262-24.29,1.036-11.394,5.245-21.721,11.673-31.287,1.084,9.772,5.821,37.4,25.588,55.578" transform="translate(1204.282 -92.127)" fill="#1a428a"/>
        <path id="Path_233095" data-name="Path 233095" d="M1234.679,274.894l1.346,1.783c11.114,15.956,6.18,43.188.638,59.957-9.973,30.2-87.022,74.851-112.733,95.208-20.978,16.594-62.653,52.588-30.221,89.338.992,1.115,2.041,2.246,3.16,3.391h.013c1.036-11.394,5.249-21.721,11.673-31.287,27.865-41.457,96.6-69.759,131.9-109.979,18.771-21.393,29.657-77.775-5.778-108.411" transform="translate(1192.63 -260.546)" fill="#1a428a"/>
        <path id="Path_233096" data-name="Path 233096" d="M1089.906,383.868c-20.947-10.62-28.966-15.96-37.266-24.29,1.041-11.394,5.249-21.721,11.673-31.287,1.088,9.768,5.826,37.4,25.592,55.578" transform="translate(1094.443 -80.583)" fill="#1a428a"/>
        <path id="Path_233097" data-name="Path 233097" d="M1202.09,278.318l1.346,1.779c11.113,15.961,6.175,43.2.634,59.961-9.969,30.2-87.018,74.851-112.733,95.208-20.973,16.594-62.648,52.588-30.216,89.338.992,1.115,2.041,2.246,3.16,3.391h.013c1.036-11.389,5.249-21.716,11.669-31.287,27.87-41.457,96.606-69.759,131.9-109.975,18.774-21.393,29.666-77.779-5.773-108.415" transform="translate(1082.795 -249.006)" fill="#1a428a"/>
        <path id="Path_233098" data-name="Path 233098" d="M1057.318,387.292c-20.947-10.62-28.967-15.96-37.266-24.29,1.04-11.393,5.253-21.72,11.677-31.287,1.084,9.768,5.821,37.4,25.588,55.578" transform="translate(984.606 -69.043)" fill="#1a428a"/>
        <path id="Path_233099" data-name="Path 233099" d="M1169.5,281.743l1.346,1.783c11.114,15.961,6.18,43.192.638,59.957-9.973,30.2-87.022,74.851-112.733,95.208-20.978,16.594-62.653,52.593-30.221,89.343.992,1.115,2.042,2.242,3.16,3.387h.013c1.036-11.389,5.249-21.716,11.673-31.287,27.865-41.457,96.6-69.755,131.9-109.975,18.775-21.393,29.666-77.779-5.773-108.415" transform="translate(972.955 -237.463)" fill="#1a428a"/>
        <path id="Path_233100" data-name="Path 233100" d="M1024.724,390.716c-20.943-10.62-28.967-15.96-37.262-24.29,1.036-11.393,5.245-21.721,11.673-31.287,1.084,9.772,5.822,37.4,25.589,55.578" transform="translate(874.771 -57.5)" fill="#1a428a"/>
        <path id="Path_233101" data-name="Path 233101" d="M1136.911,285.168l1.346,1.779c11.114,15.96,6.18,43.2.638,59.961-9.974,30.2-87.022,74.851-112.733,95.208-20.978,16.594-62.653,52.589-30.221,89.339q1.488,1.672,3.155,3.391h.018c1.036-11.389,5.249-21.721,11.673-31.287,27.866-41.457,96.6-69.759,131.9-109.975,18.771-21.4,29.662-77.779-5.778-108.415" transform="translate(863.119 -225.919)" fill="#1a428a"/>
        <path id="Path_233102" data-name="Path 233102" d="M992.139,394.142c-20.947-10.62-28.967-15.96-37.266-24.29,1.041-11.393,5.249-21.721,11.678-31.287,1.084,9.768,5.821,37.4,25.588,55.578" transform="translate(764.931 -45.956)" fill="#1a428a"/>
        <path id="Path_233103" data-name="Path 233103" d="M1104.324,288.593l1.346,1.783c11.114,15.956,6.18,43.192.634,59.957-9.969,30.2-87.018,74.851-112.733,95.208-20.973,16.594-62.653,52.593-30.216,89.339.992,1.115,2.041,2.246,3.159,3.391h.014c1.036-11.389,5.249-21.716,11.673-31.287,27.865-41.457,96.6-69.759,131.9-109.975,18.775-21.393,29.666-77.779-5.773-108.415" transform="translate(753.281 -214.376)" fill="#1a428a"/>
        <path id="Path_233104" data-name="Path 233104" d="M959.545,397.567c-20.943-10.62-28.967-15.96-37.261-24.29,1.036-11.394,5.244-21.721,11.673-31.287,1.084,9.772,5.821,37.4,25.588,55.578" transform="translate(655.095 -34.413)" fill="#1a428a"/>
        <path id="Path_233105" data-name="Path 233105" d="M1071.733,292.018l1.346,1.779c11.114,15.96,6.18,43.192.638,59.961-9.973,30.2-87.022,74.851-112.733,95.208C940,465.56,898.331,501.554,930.763,538.3q1.488,1.672,3.156,3.391h.017c1.036-11.394,5.249-21.721,11.673-31.287,27.865-41.457,96.6-69.759,131.9-109.98,18.771-21.393,29.662-77.775-5.777-108.411" transform="translate(643.443 -202.832)" fill="#1a428a"/>
        <path id="Path_233106" data-name="Path 233106" d="M926.96,400.992c-20.947-10.62-28.967-15.96-37.266-24.29,1.04-11.393,5.249-21.721,11.678-31.287,1.084,9.768,5.821,37.4,25.588,55.578" transform="translate(545.255 -22.87)" fill="#1a428a"/>
        <path id="Path_233107" data-name="Path 233107" d="M1039.145,295.443l1.346,1.779c11.114,15.96,6.175,43.2.634,59.961-9.969,30.2-87.018,74.851-112.733,95.208-20.973,16.594-62.653,52.588-30.217,89.339.992,1.114,2.041,2.246,3.16,3.391h.013c1.036-11.389,5.249-21.716,11.673-31.287,27.865-41.457,96.6-69.759,131.9-109.975,18.775-21.393,29.666-77.779-5.773-108.415" transform="translate(533.605 -191.289)" fill="#1a428a"/>
        <path id="Path_233108" data-name="Path 233108" d="M894.367,404.417c-20.947-10.62-28.967-15.961-37.261-24.29,1.036-11.393,5.245-21.72,11.673-31.287,1.084,9.772,5.821,37.4,25.588,55.578" transform="translate(435.423 -11.326)" fill="#1a428a"/>
        <path id="Path_233109" data-name="Path 233109" d="M1006.556,298.867l1.346,1.779c11.114,15.965,6.18,43.2.638,59.961-9.973,30.2-87.022,74.851-112.733,95.208-20.978,16.594-62.657,52.593-30.221,89.343q1.488,1.672,3.155,3.391h.018c1.036-11.393,5.249-21.72,11.673-31.292,27.865-41.457,96.6-69.755,131.9-109.975,18.771-21.393,29.661-77.779-5.778-108.415" transform="translate(423.77 -179.749)" fill="#1a428a"/>
        <path id="Path_233110" data-name="Path 233110" d="M861.777,407.841c-20.943-10.62-28.962-15.961-37.261-24.29,1.036-11.393,5.244-21.721,11.673-31.287,1.084,9.772,5.821,37.4,25.588,55.578" transform="translate(325.583 0.214)" fill="#1a428a"/>
        <path id="Path_233111" data-name="Path 233111" d="M973.97,302.292l1.342,1.779c11.114,15.961,6.176,43.2.634,59.961-9.964,30.2-87.013,74.851-112.733,95.208C842.24,475.834,800.56,511.828,833,548.578q1.489,1.672,3.156,3.391h.017c1.036-11.389,5.249-21.721,11.669-31.287,27.87-41.457,96.611-69.76,131.9-109.975,18.775-21.393,29.666-77.779-5.769-108.415" transform="translate(313.93 -168.205)" fill="#1a428a"/>
        <path id="Path_233112" data-name="Path 233112" d="M829.192,411.266c-20.947-10.62-28.967-15.961-37.266-24.29,1.04-11.394,5.249-21.72,11.678-31.287,1.084,9.768,5.821,37.4,25.588,55.578" transform="translate(215.744 11.757)" fill="#1a428a"/>
        <path id="Path_233113" data-name="Path 233113" d="M941.377,305.717l1.346,1.783c11.114,15.956,6.179,43.192.638,59.957-9.973,30.2-87.022,74.851-112.737,95.208C809.65,479.259,767.97,515.257,800.407,552c.992,1.114,2.041,2.246,3.16,3.391h.013c1.036-11.389,5.249-21.716,11.673-31.287,27.865-41.457,96.6-69.759,131.9-109.975,18.775-21.393,29.666-77.779-5.773-108.415" transform="translate(204.094 -156.662)" fill="#1a428a"/>
        <path id="Path_233114" data-name="Path 233114" d="M796.6,414.691c-20.943-10.62-28.967-15.96-37.261-24.29,1.036-11.394,5.249-21.721,11.673-31.287,1.084,9.772,5.821,37.4,25.588,55.578" transform="translate(105.911 23.301)" fill="#1a428a"/>
        <path id="Path_233115" data-name="Path 233115" d="M908.786,309.142l1.346,1.779c11.114,15.96,6.18,43.192.638,59.961-9.973,30.2-87.022,74.851-112.733,95.208-20.982,16.594-62.653,52.588-30.221,89.339q1.488,1.672,3.155,3.391h.017c1.036-11.394,5.253-21.721,11.673-31.287,27.865-41.457,96.6-69.759,131.9-109.98,18.771-21.393,29.657-77.775-5.778-108.411" transform="translate(94.256 -145.119)" fill="#1a428a"/>
        <path id="Path_233116" data-name="Path 233116" d="M764.014,418.116c-20.947-10.62-28.967-15.961-37.266-24.291,1.041-11.393,5.249-21.721,11.678-31.287,1.084,9.768,5.821,37.4,25.588,55.578" transform="translate(-3.928 34.844)" fill="#1a428a"/>
        <path id="Path_233117" data-name="Path 233117" d="M876.2,312.567l1.346,1.779c11.114,15.961,6.18,43.2.634,59.961-9.969,30.2-87.018,74.851-112.733,95.208-20.973,16.594-62.653,52.588-30.217,89.339q1.489,1.672,3.156,3.391h.017c1.036-11.389,5.249-21.716,11.673-31.287,27.865-41.457,96.6-69.759,131.9-109.975,18.775-21.393,29.666-77.779-5.773-108.415" transform="translate(-15.582 -133.575)" fill="#1a428a"/>
        <path id="Path_233118" data-name="Path 233118" d="M731.42,421.54c-20.943-10.62-28.967-15.96-37.261-24.29,1.036-11.393,5.244-21.721,11.673-31.287,1.084,9.772,5.821,37.4,25.588,55.578" transform="translate(-113.765 46.388)" fill="#1a428a"/>
        <path id="Path_233119" data-name="Path 233119" d="M843.607,315.991l1.346,1.779c11.114,15.969,6.18,43.2.638,59.961-9.973,30.208-87.022,74.855-112.733,95.212-20.978,16.594-62.653,52.593-30.221,89.339.992,1.119,2.041,2.242,3.156,3.391h.017c1.036-11.389,5.249-21.721,11.673-31.292,27.865-41.453,96.6-69.755,131.9-109.975,18.771-21.389,29.662-77.779-5.777-108.415" transform="translate(-125.416 -122.035)" fill="#1a428a"/>
        <path id="Path_233120" data-name="Path 233120" d="M698.835,424.966c-20.947-10.62-28.967-15.96-37.266-24.29,1.04-11.393,5.253-21.721,11.678-31.287,1.084,9.768,5.821,37.4,25.588,55.578" transform="translate(-223.604 57.931)" fill="#1a428a"/>
        <path id="Path_233121" data-name="Path 233121" d="M811.02,319.417l1.346,1.783c11.114,15.956,6.175,43.192.634,59.957-9.969,30.2-87.018,74.851-112.733,95.208-20.973,16.594-62.653,52.588-30.217,89.339.992,1.115,2.041,2.246,3.16,3.391h.013c1.036-11.389,5.249-21.721,11.673-31.287,27.865-41.457,96.6-69.759,131.9-109.975,18.775-21.393,29.666-77.779-5.773-108.415" transform="translate(-235.254 -110.488)" fill="#1a428a"/>
        <path id="Path_233122" data-name="Path 233122" d="M666.245,428.391c-20.947-10.62-28.967-15.96-37.266-24.29,1.04-11.393,5.249-21.72,11.677-31.287,1.084,9.768,5.821,37.4,25.588,55.578" transform="translate(-333.443 69.474)" fill="#1a428a"/>
        <path id="Path_233123" data-name="Path 233123" d="M778.43,322.841l1.346,1.783c11.114,15.956,6.18,43.192.638,59.957-9.973,30.2-87.022,74.851-112.733,95.208-20.978,16.594-62.658,52.593-30.221,89.343.992,1.11,2.041,2.242,3.16,3.387h.013c1.036-11.389,5.249-21.716,11.673-31.287,27.865-41.457,96.6-69.759,131.9-109.975,18.771-21.393,29.662-77.779-5.777-108.415" transform="translate(-345.093 -98.948)" fill="#1a428a"/>
        <path id="Path_233124" data-name="Path 233124" d="M633.652,431.815c-20.943-10.62-28.962-15.96-37.262-24.29,1.036-11.393,5.249-21.721,11.673-31.287,1.084,9.772,5.821,37.4,25.588,55.578" transform="translate(-443.276 81.014)" fill="#1a428a"/>
        <path id="Path_233125" data-name="Path 233125" d="M745.841,326.266l1.346,1.779c11.114,15.96,6.176,43.192.634,59.961-9.969,30.2-87.018,74.851-112.733,95.208-20.973,16.594-62.653,52.588-30.217,89.339q1.488,1.672,3.156,3.391h.017c1.036-11.393,5.249-21.721,11.669-31.287,27.87-41.457,96.606-69.759,131.9-109.98,18.775-21.393,29.666-77.775-5.773-108.411" transform="translate(-454.929 -87.405)" fill="#1a428a"/>
        <path id="Path_233126" data-name="Path 233126" d="M601.067,435.24c-20.947-10.62-28.967-15.961-37.266-24.29,1.04-11.394,5.249-21.721,11.677-31.287,1.084,9.768,5.821,37.4,25.588,55.578" transform="translate(-553.115 92.558)" fill="#1a428a"/>
        <path id="Path_233127" data-name="Path 233127" d="M713.252,329.691l1.346,1.779c11.114,15.961,6.18,43.2.638,59.961-9.973,30.2-87.022,74.851-112.738,95.208-20.973,16.594-62.653,52.588-30.217,89.339.992,1.114,2.041,2.246,3.16,3.391h.013c1.036-11.389,5.249-21.716,11.673-31.287,27.865-41.457,96.6-69.759,131.9-109.975,18.775-21.393,29.666-77.779-5.773-108.415" transform="translate(-564.765 -75.862)" fill="#1a428a"/>
        <path id="Path_233128" data-name="Path 233128" d="M680.661,333.116l1.346,1.779c11.114,15.965,6.18,43.2.638,59.961-9.973,30.2-87.022,74.851-112.733,95.208-20.978,16.594-62.653,52.593-30.221,89.343.992,1.114,2.041,2.242,3.159,3.391h.013c1.036-11.393,5.249-21.721,11.673-31.292,27.865-41.457,96.6-69.755,131.9-109.975,18.771-21.393,29.661-77.779-5.778-108.415" transform="translate(-674.603 -64.318)" fill="#1a428a"/>
        <path id="Path_233129" data-name="Path 233129" d="M1205.452,321.7c-20.947-10.62-28.966-15.96-37.266-24.29,1.041-11.393,5.253-21.721,11.678-31.287,1.084,9.772,5.821,37.4,25.588,55.578" transform="translate(1483.872 -290.111)" fill="#1a428a"/>
        <path id="Path_233130" data-name="Path 233130" d="M1317.636,216.151l1.346,1.783c11.113,15.96,6.179,43.192.634,59.957-9.969,30.2-87.018,74.851-112.733,95.212-20.973,16.59-62.648,52.588-30.216,89.339.992,1.114,2.041,2.242,3.16,3.391h.013c1.036-11.394,5.249-21.721,11.673-31.292,27.865-41.457,96.6-69.755,131.9-109.975,18.775-21.393,29.666-77.779-5.773-108.415" transform="translate(1472.224 -458.53)" fill="#1a428a"/>
        <path id="Path_233131" data-name="Path 233131" d="M1172.86,325.125c-20.943-10.62-28.967-15.961-37.262-24.29,1.036-11.394,5.249-21.721,11.673-31.287,1.083,9.768,5.822,37.4,25.588,55.578" transform="translate(1374.04 -278.567)" fill="#1a428a"/>
        <path id="Path_233132" data-name="Path 233132" d="M1285.049,219.576l1.346,1.783c11.109,15.956,6.175,43.192.638,59.957-9.973,30.2-87.022,74.851-112.737,95.208-20.978,16.594-62.649,52.588-30.221,89.338q1.488,1.672,3.156,3.391h.021c1.031-11.389,5.244-21.716,11.673-31.287,27.865-41.457,96.6-69.759,131.9-109.975,18.771-21.393,29.662-77.779-5.773-108.415" transform="translate(1362.386 -446.987)" fill="#1a428a"/>
        <path id="Path_233133" data-name="Path 233133" d="M1140.275,328.55c-20.947-10.62-28.967-15.961-37.266-24.29,1.04-11.394,5.253-21.721,11.678-31.287,1.083,9.768,5.821,37.4,25.588,55.578" transform="translate(1264.2 -267.024)" fill="#1a428a"/>
        <path id="Path_233134" data-name="Path 233134" d="M1252.458,223l1.347,1.783c11.114,15.96,6.175,43.192.633,59.957-9.968,30.2-87.018,74.851-112.732,95.208-20.974,16.594-62.654,52.593-30.217,89.343q1.489,1.672,3.156,3.387h.018c1.036-11.389,5.249-21.716,11.673-31.287,27.865-41.457,96.6-69.755,131.9-109.975,18.775-21.393,29.666-77.779-5.773-108.415" transform="translate(1252.547 -435.447)" fill="#1a428a"/>
        <path id="Path_233135" data-name="Path 233135" d="M1107.681,331.974c-20.947-10.62-28.967-15.961-37.261-24.291,1.035-11.393,5.249-21.721,11.673-31.287,1.084,9.772,5.821,37.4,25.588,55.578" transform="translate(1154.364 -255.484)" fill="#1a428a"/>
        <path id="Path_233136" data-name="Path 233136" d="M1219.87,226.425l1.347,1.783c11.113,15.956,6.179,43.188.638,59.957-9.974,30.2-87.022,74.851-112.733,95.208-20.982,16.594-62.658,52.588-30.221,89.339q1.488,1.672,3.156,3.391h.018c1.035-11.393,5.249-21.721,11.673-31.287,27.866-41.457,96.6-69.759,131.9-109.975,18.771-21.4,29.657-77.779-5.778-108.415" transform="translate(1142.71 -423.903)" fill="#1a428a"/>
        <path id="Path_233137" data-name="Path 233137" d="M1075.093,335.4c-20.943-10.62-28.962-15.96-37.262-24.29,1.036-11.394,5.244-21.721,11.673-31.287,1.084,9.768,5.821,37.4,25.589,55.578" transform="translate(1044.528 -243.94)" fill="#1a428a"/>
        <path id="Path_233138" data-name="Path 233138" d="M1187.279,229.85l1.346,1.783c11.114,15.956,6.176,43.192.634,59.957-9.969,30.2-87.018,74.851-112.732,95.208-20.974,16.594-62.649,52.589-30.217,89.339.992,1.115,2.041,2.246,3.16,3.391h.013c1.036-11.389,5.249-21.716,11.668-31.287,27.87-41.457,96.606-69.759,131.9-109.975,18.775-21.393,29.662-77.779-5.773-108.415" transform="translate(1032.876 -412.36)" fill="#1a428a"/>
        <path id="Path_233139" data-name="Path 233139" d="M1042.507,338.824c-20.947-10.62-28.967-15.96-37.266-24.29,1.04-11.393,5.253-21.721,11.677-31.287,1.084,9.772,5.821,37.4,25.588,55.578" transform="translate(934.688 -232.397)" fill="#1a428a"/>
        <path id="Path_233140" data-name="Path 233140" d="M1154.689,233.275l1.346,1.783c11.118,15.956,6.18,43.188.638,59.957-9.973,30.2-87.022,74.851-112.737,95.208-20.973,16.594-62.649,52.588-30.217,89.339.992,1.115,2.041,2.246,3.16,3.391h.014c1.036-11.393,5.249-21.721,11.673-31.287,27.865-41.457,96.6-69.759,131.9-109.98,18.775-21.393,29.666-77.775-5.773-108.411" transform="translate(923.037 -400.816)" fill="#1a428a"/>
        <path id="Path_233141" data-name="Path 233141" d="M1009.913,342.249c-20.942-10.62-28.966-15.96-37.261-24.29,1.036-11.393,5.244-21.721,11.673-31.287,1.084,9.768,5.822,37.4,25.588,55.578" transform="translate(824.852 -220.854)" fill="#1a428a"/>
        <path id="Path_233142" data-name="Path 233142" d="M1122.1,236.7l1.346,1.783c11.114,15.956,6.18,43.192.638,59.957-9.973,30.2-87.022,74.851-112.733,95.208-20.978,16.594-62.653,52.588-30.221,89.339.992,1.115,2.041,2.246,3.16,3.391h.013c1.036-11.389,5.249-21.716,11.673-31.287,27.865-41.457,96.6-69.759,131.9-109.975,18.771-21.393,29.661-77.779-5.778-108.415" transform="translate(813.2 -389.273)" fill="#1a428a"/>
        <path id="Path_233143" data-name="Path 233143" d="M977.328,345.674c-20.947-10.62-28.967-15.96-37.266-24.29,1.04-11.393,5.249-21.721,11.678-31.287,1.084,9.768,5.821,37.4,25.588,55.578" transform="translate(715.013 -209.31)" fill="#1a428a"/>
        <path id="Path_233144" data-name="Path 233144" d="M1089.511,240.125l1.346,1.783c11.114,15.96,6.18,43.192.634,59.957-9.969,30.2-87.018,74.851-112.733,95.208-20.973,16.594-62.648,52.593-30.216,89.343.992,1.114,2.041,2.242,3.16,3.387h.013c1.036-11.389,5.249-21.716,11.673-31.287,27.865-41.457,96.6-69.755,131.9-109.975,18.775-21.393,29.666-77.779-5.773-108.415" transform="translate(703.365 -377.73)" fill="#1a428a"/>
        <path id="Path_233145" data-name="Path 233145" d="M944.735,349.1c-20.947-10.62-28.971-15.961-37.262-24.29,1.036-11.393,5.245-21.72,11.669-31.287,1.084,9.772,5.826,37.4,25.593,55.578" transform="translate(605.18 -197.77)" fill="#1a428a"/>
        <path id="Path_233146" data-name="Path 233146" d="M1056.922,243.55l1.346,1.783c11.114,15.956,6.18,43.192.638,59.957-9.973,30.2-87.022,74.851-112.733,95.208-20.978,16.594-62.653,52.588-30.221,89.339q1.488,1.672,3.155,3.391h.018c1.036-11.389,5.249-21.721,11.673-31.287,27.865-41.457,96.6-69.759,131.9-109.975,18.771-21.4,29.662-77.779-5.777-108.415" transform="translate(593.525 -366.186)" fill="#1a428a"/>
        <path id="Path_233147" data-name="Path 233147" d="M912.153,352.523c-20.951-10.62-28.971-15.961-37.271-24.29,1.045-11.394,5.249-21.721,11.678-31.287,1.084,9.768,5.826,37.4,25.593,55.578" transform="translate(495.337 -186.223)" fill="#1a428a"/>
        <path id="Path_233148" data-name="Path 233148" d="M1024.334,246.974l1.346,1.779c11.114,15.96,6.175,43.2.634,59.961-9.969,30.2-87.018,74.851-112.733,95.208-20.973,16.594-62.653,52.588-30.217,89.339.992,1.114,2.041,2.246,3.159,3.391h.013c1.036-11.389,5.249-21.716,11.673-31.287,27.865-41.457,96.6-69.76,131.9-109.975,18.775-21.393,29.666-77.779-5.773-108.415" transform="translate(483.687 -354.646)" fill="#1a428a"/>
        <path id="Path_233149" data-name="Path 233149" d="M879.56,355.948c-20.947-10.62-28.967-15.961-37.266-24.29,1.04-11.393,5.249-21.721,11.677-31.287,1.084,9.772,5.821,37.4,25.588,55.578" transform="translate(385.501 -174.683)" fill="#1a428a"/>
        <path id="Path_233150" data-name="Path 233150" d="M991.749,250.4l1.346,1.779c11.109,15.96,6.18,43.192.638,59.961C983.76,342.338,906.71,386.99,881,407.347c-20.986,16.594-62.662,52.588-30.225,89.338q1.488,1.672,3.155,3.391h.018c1.036-11.393,5.249-21.721,11.677-31.287,27.861-41.457,96.6-69.759,131.9-109.98,18.771-21.393,29.657-77.775-5.773-108.411" transform="translate(373.848 -343.103)" fill="#1a428a"/>
        <path id="Path_233151" data-name="Path 233151" d="M846.967,359.373c-20.943-10.62-28.962-15.961-37.261-24.29,1.036-11.394,5.244-21.721,11.673-31.287,1.084,9.768,5.822,37.4,25.589,55.578" transform="translate(275.665 -163.14)" fill="#1a428a"/>
        <path id="Path_233152" data-name="Path 233152" d="M959.155,253.824l1.346,1.783c11.114,15.956,6.175,43.192.634,59.957-9.969,30.2-87.018,74.851-112.733,95.208-20.973,16.594-62.653,52.588-30.217,89.339.992,1.115,2.041,2.246,3.16,3.391h.013c1.036-11.389,5.249-21.716,11.669-31.287,27.87-41.457,96.606-69.759,131.9-109.975,18.775-21.393,29.666-77.779-5.773-108.415" transform="translate(264.012 -331.559)" fill="#1a428a"/>
        <path id="Path_233153" data-name="Path 233153" d="M814.381,362.8c-20.947-10.62-28.967-15.961-37.266-24.29,1.04-11.394,5.249-21.721,11.677-31.287,1.084,9.768,5.822,37.4,25.589,55.578" transform="translate(165.826 -151.596)" fill="#1a428a"/>
        <path id="Path_233154" data-name="Path 233154" d="M926.564,257.249l1.346,1.783c11.114,15.96,6.18,43.192.638,59.957-9.973,30.2-87.022,74.851-112.737,95.208-20.973,16.594-62.649,52.593-30.217,89.343.992,1.115,2.041,2.242,3.16,3.387h.013c1.036-11.389,5.249-21.716,11.673-31.287,27.865-41.457,96.6-69.755,131.9-109.975,18.775-21.393,29.666-77.779-5.773-108.415" transform="translate(154.177 -320.016)" fill="#1a428a"/>
        <path id="Path_233155" data-name="Path 233155" d="M781.788,366.223c-20.943-10.62-28.967-15.961-37.261-24.291,1.036-11.393,5.249-21.72,11.673-31.287,1.084,9.772,5.821,37.4,25.588,55.578" transform="translate(55.993 -140.053)" fill="#1a428a"/>
        <path id="Path_233156" data-name="Path 233156" d="M893.977,260.674l1.346,1.783c11.109,15.956,6.179,43.192.634,59.957-9.969,30.2-87.018,74.851-112.729,95.208C762.246,434.216,720.575,470.21,753,506.96q1.488,1.672,3.155,3.391h.018c1.036-11.389,5.249-21.72,11.678-31.287,27.861-41.457,96.6-69.759,131.9-109.975,18.771-21.4,29.661-77.779-5.773-108.415" transform="translate(44.339 -308.472)" fill="#1a428a"/>
        <path id="Path_233157" data-name="Path 233157" d="M749.2,369.647c-20.947-10.62-28.967-15.96-37.266-24.29,1.04-11.393,5.249-21.721,11.678-31.287,1.084,9.768,5.821,37.4,25.588,55.578" transform="translate(-53.846 -128.51)" fill="#1a428a"/>
        <path id="Path_233158" data-name="Path 233158" d="M861.387,264.1l1.346,1.783c11.114,15.956,6.175,43.192.634,59.957-9.969,30.2-87.018,74.851-112.733,95.208-20.973,16.594-62.653,52.588-30.217,89.339.992,1.115,2.041,2.246,3.16,3.391h.013c1.036-11.389,5.249-21.716,11.673-31.287,27.865-41.457,96.6-69.759,131.9-109.975,18.775-21.393,29.666-77.779-5.773-108.415" transform="translate(-65.5 -296.932)" fill="#1a428a"/>
        <path id="Path_233159" data-name="Path 233159" d="M716.609,373.072c-20.943-10.62-28.967-15.96-37.261-24.29,1.036-11.394,5.244-21.721,11.673-31.287,1.084,9.772,5.822,37.4,25.589,55.578" transform="translate(-163.682 -116.97)" fill="#1a428a"/>
        <path id="Path_233160" data-name="Path 233160" d="M828.8,267.524l1.346,1.779c11.114,15.96,6.18,43.192.638,59.961-9.973,30.2-87.022,74.851-112.733,95.208-20.978,16.594-62.653,52.588-30.221,89.339.992,1.115,2.041,2.246,3.16,3.391H691c1.036-11.393,5.249-21.721,11.673-31.287,27.865-41.457,96.6-69.759,131.9-109.98,18.771-21.393,29.662-77.775-5.778-108.411" transform="translate(-175.334 -285.386)" fill="#1a428a"/>
        <path id="Path_233161" data-name="Path 233161" d="M684.024,376.5c-20.947-10.62-28.967-15.96-37.266-24.29,1.04-11.394,5.253-21.721,11.673-31.287,1.088,9.768,5.826,37.4,25.593,55.578" transform="translate(-273.522 -105.423)" fill="#1a428a"/>
        <path id="Path_233162" data-name="Path 233162" d="M796.209,270.948l1.346,1.779c11.114,15.96,6.176,43.2.634,59.961-9.969,30.2-87.018,74.851-112.733,95.208-20.973,16.594-62.653,52.588-30.217,89.339q1.488,1.672,3.156,3.391h.017c1.036-11.389,5.249-21.716,11.669-31.287,27.87-41.457,96.606-69.759,131.9-109.975,18.775-21.393,29.666-77.779-5.773-108.415" transform="translate(-285.172 -273.846)" fill="#1a428a"/>
        <path id="Path_233163" data-name="Path 233163" d="M651.434,379.922c-20.947-10.62-28.967-15.961-37.266-24.29,1.04-11.393,5.253-21.721,11.677-31.287,1.084,9.768,5.821,37.4,25.588,55.578" transform="translate(-383.361 -93.883)" fill="#1a428a"/>
        <path id="Path_233164" data-name="Path 233164" d="M763.619,274.373l1.346,1.779c11.114,15.965,6.18,43.2.638,59.961-9.973,30.2-87.022,74.851-112.733,95.208-20.978,16.594-62.657,52.593-30.221,89.343.992,1.114,2.041,2.242,3.16,3.391h.013c1.036-11.393,5.249-21.721,11.673-31.292,27.865-41.457,96.6-69.755,131.9-109.975,18.775-21.393,29.666-77.779-5.773-108.415" transform="translate(-395.011 -262.302)" fill="#1a428a"/>
        <path id="Path_233165" data-name="Path 233165" d="M618.842,383.347c-20.943-10.62-28.967-15.96-37.262-24.29,1.036-11.393,5.249-21.721,11.673-31.287,1.084,9.772,5.822,37.4,25.589,55.578" transform="translate(-493.194 -82.339)" fill="#1a428a"/>
        <path id="Path_233166" data-name="Path 233166" d="M731.029,277.8l1.346,1.783c11.114,15.956,6.179,43.192.638,59.957-9.973,30.2-87.022,74.851-112.733,95.208-20.978,16.594-62.653,52.588-30.221,89.339q1.488,1.672,3.155,3.391h.018c1.036-11.389,5.249-21.721,11.673-31.287,27.865-41.457,96.6-69.759,131.9-109.975,18.771-21.4,29.661-77.779-5.778-108.415" transform="translate(-504.846 -250.759)" fill="#1a428a"/>
        <path id="Path_233167" data-name="Path 233167" d="M586.256,386.772c-20.947-10.62-28.967-15.961-37.266-24.29,1.04-11.393,5.249-21.721,11.677-31.287,1.084,9.768,5.822,37.4,25.589,55.578" transform="translate(-603.034 -70.796)" fill="#1a428a"/>
        <path id="Path_233168" data-name="Path 233168" d="M698.441,281.223l1.346,1.783c11.114,15.956,6.18,43.192.634,59.957-9.969,30.2-87.018,74.851-112.733,95.208-20.973,16.594-62.653,52.593-30.217,89.339.992,1.114,2.041,2.246,3.16,3.391h.013c1.036-11.389,5.249-21.716,11.673-31.287,27.865-41.457,96.6-69.76,131.9-109.975,18.775-21.393,29.666-77.779-5.773-108.415" transform="translate(-614.683 -239.215)" fill="#1a428a"/>
        <path id="Path_233169" data-name="Path 233169" d="M665.849,284.648l1.346,1.779c11.114,15.961,6.18,43.192.638,59.961-9.973,30.2-87.022,74.851-112.733,95.208-20.978,16.594-62.653,52.588-30.221,89.339.992,1.114,2.041,2.246,3.16,3.391h.013c1.036-11.394,5.249-21.721,11.673-31.287,27.865-41.457,96.6-69.759,131.9-109.979,18.771-21.393,29.661-77.775-5.778-108.411" transform="translate(-724.521 -227.672)" fill="#1a428a"/>
        <path id="Path_233170" data-name="Path 233170" d="M897.338,304.055c-20.947-10.62-28.967-15.961-37.266-24.29,1.04-11.393,5.253-21.721,11.673-31.287,1.088,9.768,5.826,37.4,25.593,55.578" transform="translate(445.419 -349.58)" fill="#1a428a"/>
        <path id="Path_233171" data-name="Path 233171" d="M864.749,307.48c-20.947-10.62-28.967-15.96-37.266-24.29,1.04-11.394,5.249-21.721,11.678-31.287,1.084,9.772,5.821,37.4,25.588,55.578" transform="translate(335.583 -338.037)" fill="#1a428a"/>
        <path id="Path_233172" data-name="Path 233172" d="M832.156,310.9c-20.943-10.62-28.967-15.961-37.261-24.291,1.036-11.393,5.249-21.721,11.673-31.287,1.084,9.768,5.821,37.4,25.588,55.578" transform="translate(225.747 -326.494)" fill="#1a428a"/>
        <path id="Path_233173" data-name="Path 233173" d="M944.343,205.356l1.346,1.779c11.114,15.96,6.18,43.2.638,59.961-9.973,30.2-87.022,74.851-112.733,95.208-20.978,16.594-62.653,52.588-30.221,89.339q1.488,1.672,3.155,3.391h.018c1.036-11.389,5.249-21.716,11.673-31.287,27.865-41.457,96.6-69.759,131.9-109.975,18.771-21.393,29.662-77.779-5.777-108.415" transform="translate(214.095 -494.913)" fill="#1a428a"/>
        <path id="Path_233174" data-name="Path 233174" d="M799.57,314.329c-20.947-10.62-28.967-15.96-37.266-24.29,1.04-11.394,5.249-21.721,11.677-31.287,1.084,9.772,5.821,37.4,25.588,55.578" transform="translate(115.908 -314.95)" fill="#1a428a"/>
        <path id="Path_233175" data-name="Path 233175" d="M911.755,208.781l1.346,1.779c11.114,15.96,6.18,43.192.634,59.961-9.969,30.2-87.018,74.851-112.733,95.208-20.973,16.594-62.653,52.589-30.217,89.339.992,1.115,2.041,2.246,3.16,3.391h.013c1.036-11.394,5.249-21.721,11.673-31.287,27.865-41.457,96.6-69.76,131.9-109.98,18.775-21.393,29.666-77.775-5.773-108.411" transform="translate(104.257 -483.369)" fill="#1a428a"/>
        <path id="Path_233176" data-name="Path 233176" d="M766.978,317.755c-20.943-10.62-28.967-15.96-37.261-24.29,1.036-11.393,5.249-21.721,11.673-31.287,1.084,9.768,5.821,37.4,25.588,55.578" transform="translate(6.075 -303.407)" fill="#1a428a"/>
        <path id="Path_233177" data-name="Path 233177" d="M879.164,212.2l1.346,1.783c11.114,15.956,6.18,43.192.638,59.957-9.973,30.2-87.022,74.851-112.733,95.208-20.978,16.594-62.653,52.588-30.221,89.339q1.488,1.672,3.155,3.391h.018c1.036-11.389,5.249-21.716,11.673-31.287,27.865-41.457,96.6-69.759,131.9-109.975,18.771-21.393,29.661-77.779-5.778-108.415" transform="translate(-5.58 -471.829)" fill="#1a428a"/>
        <path id="Path_233178" data-name="Path 233178" d="M734.392,321.178c-20.947-10.62-28.967-15.96-37.266-24.29,1.04-11.393,5.249-21.721,11.677-31.287,1.084,9.768,5.822,37.4,25.589,55.578" transform="translate(-103.765 -291.867)" fill="#1a428a"/>
        <path id="Path_233179" data-name="Path 233179" d="M846.576,215.63l1.346,1.783c11.114,15.961,6.175,43.192.634,59.957-9.969,30.2-87.018,74.851-112.733,95.208-20.973,16.594-62.653,52.593-30.217,89.343q1.488,1.672,3.155,3.387h.017c1.036-11.389,5.249-21.716,11.673-31.287,27.865-41.457,96.6-69.755,131.9-109.975,18.775-21.393,29.666-77.779-5.773-108.415" transform="translate(-115.418 -460.286)" fill="#1a428a"/>
        <path id="Path_233180" data-name="Path 233180" d="M701.8,324.6c-20.947-10.62-28.967-15.96-37.262-24.29,1.036-11.393,5.249-21.721,11.673-31.287,1.084,9.772,5.821,37.4,25.588,55.578" transform="translate(-213.601 -280.323)" fill="#1a428a"/>
        <path id="Path_233181" data-name="Path 233181" d="M813.986,219.055l1.346,1.783c11.114,15.956,6.18,43.192.638,59.957C806,311,728.948,355.646,703.237,376c-20.978,16.594-62.653,52.588-30.221,89.339.992,1.114,2.041,2.246,3.16,3.391h.013c1.036-11.389,5.249-21.721,11.673-31.287,27.865-41.457,96.6-69.759,131.9-109.975,18.771-21.4,29.662-77.779-5.777-108.415" transform="translate(-225.252 -448.743)" fill="#1a428a"/>
        <path id="Path_233182" data-name="Path 233182" d="M669.209,328.029c-20.943-10.62-28.962-15.961-37.261-24.29,1.036-11.393,5.249-21.72,11.673-31.287,1.084,9.768,5.821,37.4,25.588,55.578" transform="translate(-323.437 -268.78)" fill="#1a428a"/>
        <path id="Path_233183" data-name="Path 233183" d="M781.4,222.48l1.346,1.783c11.114,15.956,6.175,43.192.634,59.957-9.969,30.2-87.018,74.851-112.733,95.208-20.973,16.594-62.653,52.588-30.217,89.339q1.488,1.671,3.155,3.391h.018c1.036-11.389,5.249-21.716,11.669-31.287,27.87-41.457,96.606-69.759,131.9-109.975,18.775-21.393,29.666-77.779-5.773-108.415" transform="translate(-335.09 -437.199)" fill="#1a428a"/>
        <path id="Path_233184" data-name="Path 233184" d="M636.624,331.453c-20.947-10.62-28.967-15.96-37.266-24.29,1.04-11.393,5.249-21.721,11.678-31.287,1.084,9.772,5.821,37.4,25.588,55.578" transform="translate(-433.276 -257.236)" fill="#1a428a"/>
        <path id="Path_233185" data-name="Path 233185" d="M748.808,225.9l1.346,1.783c11.114,15.956,6.18,43.188.638,59.957-9.973,30.2-87.022,74.851-112.737,95.208-20.973,16.594-62.653,52.588-30.217,89.339.992,1.114,2.041,2.246,3.16,3.391h.013c1.036-11.393,5.249-21.721,11.673-31.287,27.865-41.457,96.6-69.76,131.9-109.98,18.775-21.393,29.666-77.775-5.773-108.411" transform="translate(-444.929 -425.656)" fill="#1a428a"/>
        <path id="Path_233186" data-name="Path 233186" d="M604.03,334.879c-20.943-10.62-28.967-15.961-37.261-24.29,1.036-11.393,5.244-21.721,11.673-31.287,1.084,9.768,5.821,37.4,25.588,55.578" transform="translate(-543.112 -245.693)" fill="#1a428a"/>
        <path id="Path_233187" data-name="Path 233187" d="M716.218,229.33l1.346,1.783c11.114,15.956,6.18,43.192.638,59.957-9.973,30.2-87.022,74.851-112.733,95.208-20.978,16.594-62.653,52.588-30.221,89.338.992,1.115,2.041,2.246,3.16,3.391h.013c1.036-11.389,5.249-21.716,11.673-31.287,27.865-41.457,96.6-69.759,131.9-109.975,18.771-21.393,29.662-77.779-5.777-108.415" transform="translate(-554.764 -414.112)" fill="#1a428a"/>
        <path id="Path_233188" data-name="Path 233188" d="M683.629,232.754l1.346,1.783c11.114,15.961,6.179,43.192.633,59.957-9.969,30.2-87.018,74.851-112.733,95.208-20.973,16.594-62.653,52.593-30.217,89.343.992,1.115,2.041,2.242,3.16,3.387h.013c1.036-11.389,5.249-21.716,11.673-31.287,27.865-41.457,96.6-69.755,131.9-109.975,18.775-21.393,29.666-77.779-5.773-108.415" transform="translate(-664.605 -402.572)" fill="#1a428a"/>
      </g>
    </g>
  </g>
</svg>
