<svg id="Group_62360" data-name="Group 62360" xmlns="http://www.w3.org/2000/svg" xmlns:xlink="http://www.w3.org/1999/xlink" width="256.382" height="194.024" viewBox="0 0 256.382 194.024">
  <defs>
    <clipPath id="clip-path">
      <rect id="Rectangle_14884" data-name="Rectangle 14884" width="256.382" height="194.024" fill="none"/>
    </clipPath>
  </defs>
  <g id="Group_62359" data-name="Group 62359" clip-path="url(#clip-path)">
    <path id="Path_233189" data-name="Path 233189" d="M472.056,175.6a24.913,24.913,0,0,1,1.041,7.654c4.679-5.273,4.5-10.472,4.108-12.746a16.865,16.865,0,0,0-.459-1.713c-.08-.232-.159-.464-.243-.7l-.048-.119a57.652,57.652,0,0,0-8.2-13.906c-4.3-5.313-34.739-39.767-39.535-52.137a50.847,50.847,0,0,1-3.008-27.126c-.82,2.046-7.566,20.184,1.914,36.723,3.044,5.311,5.109,8.321,17.341,24.2,5.019,6.515,11.127,13.379,17.032,21.2,5.069,6.71,8.454,12.988,10.06,18.661" transform="translate(-242.536 -42.936)" fill="#003378"/>
    <path id="Path_233190" data-name="Path 233190" d="M31.439,125.591a6.777,6.777,0,0,0,6.927-5.415c.889,1.35,1.587,1.8,3.7,1.866v.01H94.08c2.359,0,3.538-1.279,3.538-3.859V108.3H95.259v9.082a4.682,4.682,0,0,1-.169,1.534,1.482,1.482,0,0,1-1.494.7H85.666c-.063-4.839-1.895-7.291-5.455-7.291-2.232,0-4.253,1.151-6.211,3.689l.294-7.717H71.978v11.32H51.9a4.115,4.115,0,0,0,.506-2.474v-4.774H50.065v4.9a3.792,3.792,0,0,1-.254,1.621,1.428,1.428,0,0,1-1.412.725H41.778c-1.2,0-2.022-.618-2.883-2.217a4.5,4.5,0,0,0-4.171-2.537H33.8v2.173a2.317,2.317,0,0,1,.38-.021,2.056,2.056,0,0,1,2.128,2.261c0,2.173-2.064,4.007-4.8,4.007-3.054,0-4.949-2.068-4.949-5.372v-2.112H24.194v2.388a7.224,7.224,0,0,0,7.245,7.4M80,114.463c2.023,0,3.244,1.747,3.244,4.475,0,.236,0,.449-.022.683H73.81c1.369-2.985,3.833-5.158,6.19-5.158m-47.72,13.471H34.6V130.3H32.281Zm-3.981,0h2.316V130.3H28.3Zm21.766-3.581h2.316v2.388H50.065Zm49.718-16.072h2.337v13.77H99.783Zm8.947,17.309v-2.047c1.958,0,2.927-.98,2.927-3.027v-8.142h2.359v7.248h31.029a5.22,5.22,0,0,0-1.137-3.389,4.442,4.442,0,0,0-3.643-1.621H135.4l4.149-6.309h2.8l-2.843,4.072h1.03a6.909,6.909,0,0,1,4.045,1.172c2,1.343,2.989,3.666,2.989,7.013v1.492h-33.7c-.359,2.281-2.275,3.539-5.138,3.539m5.264-15.178h-2.316v-2.365h2.316Zm59.928,6.972a4.683,4.683,0,0,1-.169,1.534,1.482,1.482,0,0,1-1.494.7h-3.364V119a5.108,5.108,0,0,0-1.3-3.56,4.364,4.364,0,0,0-3.412-1.429,4.559,4.559,0,0,0-3.434,1.387,4.938,4.938,0,0,0-1.3,3.517c0,.234,0,.47.023.7h-5.052v-7.248H152.05v8.142c0,2.047-.968,3.027-2.927,3.027v2.047c2.863,0,4.781-1.258,5.138-3.539h6.147a4.391,4.391,0,0,0,3.769,1.855,4.441,4.441,0,0,0,3.811-1.855h4.755c2.359,0,3.538-1.279,3.538-3.859V108.3h-2.359Zm-8,3.495a2,2,0,0,1-1.684.81,2.527,2.527,0,0,1-2.379-2.793,3.143,3.143,0,0,1,.548-1.876,2,2,0,0,1,1.705-.852,2.17,2.17,0,0,1,1.791.874,3.3,3.3,0,0,1,.568,1.94,3.152,3.152,0,0,1-.549,1.9m14.859,1.173h-2.337v-13.77h2.337ZM39.3,152.142h2.332v2.4H39.3Zm4.009,0h2.333v2.4H43.3ZM55.136,135.7H57.47v2.383H55.136Zm22.669.3h2.373v9.96c0,2.6-1.187,3.886-3.563,3.886H35.968a6.555,6.555,0,0,1-5.728,3.563c-3.689,0-6.723-3.3-6.723-7.341v-2.1h2.4v1.824c0,2.963,1.74,5.325,4.327,5.325,2.5,0,4.284-2.3,4.284-5.325V136h2.4v10.069a7.1,7.1,0,0,1-.127,1.33h4.876a1.468,1.468,0,0,0,1.442-.73,3.786,3.786,0,0,0,.254-1.631V140.1H45.72v4.81a3.967,3.967,0,0,1-.529,2.489H60.863a5.345,5.345,0,0,0-1.1-3.413,4.407,4.407,0,0,0-3.648-1.632,4.579,4.579,0,0,0-1.782.409,5.161,5.161,0,0,0-1.909,1.353c-.233-.452-.614-1.074-1.145-1.889a7.963,7.963,0,0,1,2.269-1.524,6.913,6.913,0,0,1,2.8-.6,7.173,7.173,0,0,1,3.86,1.03c1.93,1.2,2.991,3.286,3.182,6.269h3.834a1.437,1.437,0,0,0,1.423-.73,3.805,3.805,0,0,0,.254-1.631V136h2.354v8.909a4.153,4.153,0,0,1-.509,2.49h5.386a1.5,1.5,0,0,0,1.506-.709,4.7,4.7,0,0,0,.17-1.545ZM94.77,155.769H97.1v2.383H94.77Zm1.356-12h5.239v2.3a7.216,7.216,0,0,1-7.3,7.341h-.147a7.179,7.179,0,0,1-7.3-7.341v-2.383H89v2.125a5.476,5.476,0,0,0,1.273,3.8,4.65,4.65,0,0,0,3.713,1.5c3.075,0,4.75-1.676,5.005-5h-5.6c0-4.552,2.589-7.041,7.147-7.041V141.3a6.266,6.266,0,0,0-2.672.45,3.757,3.757,0,0,0-1.74,2.018m-5.366,12h2.333v2.383H90.761Zm56.619-3.627h2.332v2.4H147.38Zm-4.009,0H145.7v2.4h-2.333Zm13.19.021h2.332v2.4h-2.332Zm17.3-7.02a4.748,4.748,0,0,1-.169,1.545,1.5,1.5,0,0,1-1.506.709H158.407a4.147,4.147,0,0,0,.509-2.49V140.1h-2.354v4.939a3.788,3.788,0,0,1-.255,1.631,1.434,1.434,0,0,1-1.42.73h-5.621a3.964,3.964,0,0,0,.531-2.489V140.1h-2.354v4.939a3.811,3.811,0,0,1-.254,1.631,1.47,1.47,0,0,1-1.442.73H137.5c-.064-4.873-1.912-7.341-5.494-7.341-2.249,0-4.284,1.159-6.257,3.714l.3-7.771h-2.333v11.4H108.254v-7.3h-2.375v8.2c0,2.06-.975,3.048-2.947,3.048v2.06c2.885,0,4.815-1.266,5.176-3.563h64.57c2.375,0,3.563-1.288,3.563-3.886V136h-2.376ZM135.04,147.4h-9.481c1.38-3,3.86-5.2,6.235-5.2,2.036,0,3.266,1.762,3.266,4.51,0,.236,0,.45-.02.686m43.383-11.421h2.354v13.869h-2.354Z" transform="translate(-13.497 -62.007)" fill="#790729"/>
    <path id="Path_233191" data-name="Path 233191" d="M0,239.216H9.65V241.3H2.29v4.466H8.568v2.062H2.29v4.593H9.65V254.5H0Zm18.706,4.4h2.12V258.9H18.663v-5.517a3.328,3.328,0,0,1-2.822,1.245,3.635,3.635,0,0,1-2.608-.967c-1.083-1.095-1.209-2.963-1.209-4.614s.126-3.5,1.209-4.6a3.7,3.7,0,0,1,2.63-.966,3.293,3.293,0,0,1,2.842,1.289Zm-.043,5.433c0-1.933-.276-3.607-2.228-3.607s-2.247,1.674-2.247,3.607.3,3.628,2.247,3.628,2.228-1.7,2.228-3.628m12.087,4.357V254.5h2.12V243.615H30.707v6.634a2.156,2.156,0,0,1-2.227,2.426c-1.209,0-2.163-.73-2.163-2.426v-6.634H24.155v6.957a4.02,4.02,0,0,0,1.081,3.069,3.7,3.7,0,0,0,2.651.988,3.825,3.825,0,0,0,2.863-1.224m7.719-9.79H36.306V254.5h2.163Zm.063-4.464h-2.29v2.318h2.29Zm5.535,8.715a2.155,2.155,0,0,1,2.226-2.425c1.209,0,2.163.73,2.163,2.425V254.5H50.62v-6.955a4.027,4.027,0,0,0-1.082-3.071,3.7,3.7,0,0,0-2.651-.986,3.819,3.819,0,0,0-2.863,1.224v-1.1H41.9V254.5h2.163Zm18.45.859v.967H55.538c0,1.866.976,3.048,2.737,3.048a3.191,3.191,0,0,0,2.608-1.117l1.38,1.309a5.019,5.019,0,0,1-4.031,1.7c-2.694,0-4.834-1.439-4.834-5.582,0-3.521,1.8-5.56,4.559-5.56,2.883,0,4.56,2.145,4.56,5.237m-2.142-.559a3.481,3.481,0,0,0-.3-1.48,2.217,2.217,0,0,0-2.121-1.374,2.246,2.246,0,0,0-2.142,1.374,3.49,3.49,0,0,0-.276,1.48ZM75.6,254.5l5.005-15.285H78.187l-3.479,11.119L71.23,239.216H68.855L73.817,254.5Zm14.547-5.775v.967H83.169c0,1.866.975,3.048,2.736,3.048a3.194,3.194,0,0,0,2.609-1.117l1.378,1.309a5.017,5.017,0,0,1-4.029,1.7c-2.694,0-4.836-1.439-4.836-5.582,0-3.521,1.8-5.56,4.559-5.56,2.885,0,4.562,2.145,4.562,5.237M88,248.167a3.436,3.436,0,0,0-.3-1.48,2.214,2.214,0,0,0-2.121-1.374,2.242,2.242,0,0,0-2.14,1.374,3.445,3.445,0,0,0-.276,1.48Zm7.423-7.664H93.262v3.307h-1.23v1.674h1.23v5.99a2.818,2.818,0,0,0,2.949,3.027H97.5v-1.868h-.89c-.807,0-1.187-.471-1.187-1.266v-5.884H97.5v-1.674H95.426Zm9.05,14.128c-2.692,0-4.834-1.439-4.834-5.582,0-3.521,1.8-5.56,4.56-5.56,2.883,0,4.559,2.145,4.559,5.237v.967h-6.977c0,1.866.976,3.048,2.736,3.048a3.19,3.19,0,0,0,2.608-1.117l1.38,1.309a5.016,5.016,0,0,1-4.031,1.7m-2.692-6.463h4.836a3.507,3.507,0,0,0-.3-1.48,2.219,2.219,0,0,0-2.121-1.374,2.25,2.25,0,0,0-2.144,1.374,3.5,3.5,0,0,0-.274,1.48m17.389-3.649a3.311,3.311,0,0,0-2.566-1.03,3.553,3.553,0,0,0-2.863,1.309v-1.182h-2.121V254.5h2.163v-6.611a2.23,2.23,0,0,1,2.144-2.448,1.987,1.987,0,0,1,1.611.73Zm3.984-5.367h-2.29v2.318h2.29Zm-.062,4.464h-2.164V254.5h2.164Zm7.825,1.826c1.209,0,2.165.73,2.165,2.425V254.5h2.163v-6.955a4.033,4.033,0,0,0-1.081-3.071,3.713,3.713,0,0,0-2.651-.986,3.822,3.822,0,0,0-2.865,1.224v-1.1h-2.122V254.5h2.165v-6.634a2.155,2.155,0,0,1,2.226-2.425m15.566,1.781V254.5h-2.122v-.988a3.517,3.517,0,0,1-2.863,1.117,3.777,3.777,0,0,1-2.885-.988,3.365,3.365,0,0,1-.847-2.339c0-1.825,1.252-3.135,3.711-3.135h2.843v-.772c0-1.374-.68-2.039-2.354-2.039a2.5,2.5,0,0,0-2.354,1.051l-1.423-1.353a4.388,4.388,0,0,1,3.86-1.566c2.95,0,4.435,1.266,4.435,3.734m-2.163,2.47H141.8c-1.271,0-1.93.58-1.93,1.566s.616,1.546,1.973,1.546a2.548,2.548,0,0,0,2.015-.623,2.212,2.212,0,0,0,.467-1.61Zm7.611-4.895v-1.182h-2.121V254.5h2.164v-6.611a2.229,2.229,0,0,1,2.142-2.448,1.984,1.984,0,0,1,1.611.73l1.633-1.653a3.306,3.306,0,0,0-2.565-1.03,3.556,3.556,0,0,0-2.865,1.309M162.5,256.669l4.75-13.053h-2.312l-2.5,7.664-2.568-7.664h-2.291l3.755,10.37-.594,1.7c-.319.88-.638,1.159-1.548,1.159h-.552v1.976h.869a2.969,2.969,0,0,0,2.207-.794,3.6,3.6,0,0,0,.785-1.353M32.172,273.607,27.76,264.1h-2.29v15.285h2.29V269.163l3.563,7.45h1.7l3.479-7.45v10.219h2.29V264.1H36.5Zm18.853,0v.966H44.048c0,1.868.975,3.05,2.734,3.05a3.194,3.194,0,0,0,2.609-1.117l1.378,1.309a5.013,5.013,0,0,1-4.029,1.7c-2.692,0-4.836-1.439-4.836-5.581,0-3.521,1.8-5.56,4.56-5.56,2.885,0,4.56,2.145,4.56,5.237m-2.142-.559a3.461,3.461,0,0,0-.3-1.48,2.215,2.215,0,0,0-2.121-1.374,2.246,2.246,0,0,0-2.142,1.374,3.445,3.445,0,0,0-.274,1.48ZM60.015,264.1h2.163v15.285h-2.12v-1.159a3.293,3.293,0,0,1-2.842,1.288,3.692,3.692,0,0,1-2.63-.967c-1.083-1.095-1.209-2.963-1.209-4.614s.126-3.5,1.209-4.6a3.642,3.642,0,0,1,2.608-.966,3.312,3.312,0,0,1,2.822,1.224Zm0,9.832c0-1.933-.276-3.607-2.228-3.607S55.54,272,55.54,273.93s.3,3.628,2.247,3.628,2.228-1.7,2.228-3.628m5.533-7.579h2.29v-2.318h-2.29Zm.064,13.031h2.163V268.5H65.612Zm9.84-9.059a2.49,2.49,0,0,1,2.056,1.03l1.487-1.459a4.389,4.389,0,0,0-3.543-1.524c-2.418,0-4.793,1.481-4.793,5.56s2.375,5.582,4.793,5.582a4.4,4.4,0,0,0,3.543-1.547l-1.487-1.437a2.49,2.49,0,0,1-2.056,1.029,2.415,2.415,0,0,1-1.994-.966,4.125,4.125,0,0,1-.637-2.661,4.059,4.059,0,0,1,.637-2.641,2.412,2.412,0,0,1,1.994-.966m13.865,1.78v7.278H87.2v-.988a3.513,3.513,0,0,1-2.861,1.117,3.775,3.775,0,0,1-2.886-.988,3.366,3.366,0,0,1-.847-2.339c0-1.825,1.25-3.135,3.71-3.135h2.843v-.772c0-1.374-.68-2.039-2.354-2.039a2.506,2.506,0,0,0-2.354,1.051l-1.421-1.353a4.386,4.386,0,0,1,3.86-1.566c2.949,0,4.432,1.266,4.432,3.734m-2.162,2.469H84.631c-1.273,0-1.93.581-1.93,1.568s.615,1.547,1.971,1.547a2.552,2.552,0,0,0,2.016-.623,2.211,2.211,0,0,0,.466-1.61Zm7.592,1.676V264.1H92.582v12.278a2.759,2.759,0,0,0,2.949,3.006h1.335v-1.868h-.954c-.869,0-1.166-.43-1.166-1.266m14.716-10.2a3.037,3.037,0,0,1,3.053,2.619h2.335a5.22,5.22,0,0,0-5.388-4.7,5.439,5.439,0,0,0-3.965,1.63c-1.486,1.5-1.464,3.2-1.464,6.141s-.022,4.637,1.464,6.14a5.433,5.433,0,0,0,3.965,1.632,5.235,5.235,0,0,0,5.388-4.7h-2.313a3.061,3.061,0,0,1-3.075,2.619,3,3,0,0,1-2.226-.923c-.744-.816-.913-1.7-.913-4.766s.169-3.949.913-4.766a3,3,0,0,1,2.226-.922m16.754,7.556v.966h-6.978c0,1.868.975,3.05,2.736,3.05a3.194,3.194,0,0,0,2.609-1.117l1.378,1.309a5.018,5.018,0,0,1-4.029,1.7c-2.694,0-4.836-1.439-4.836-5.581,0-3.521,1.8-5.56,4.559-5.56,2.885,0,4.561,2.145,4.561,5.237m-2.143-.559a3.436,3.436,0,0,0-.3-1.48,2.214,2.214,0,0,0-2.121-1.374,2.242,2.242,0,0,0-2.14,1.374,3.444,3.444,0,0,0-.276,1.48Zm9.988-4.679a3.818,3.818,0,0,0-2.863,1.224v-1.1h-2.12v10.885h2.163v-6.634a2.155,2.155,0,0,1,2.226-2.425c1.209,0,2.163.73,2.163,2.425v6.634h2.163v-6.955a4.027,4.027,0,0,0-1.081-3.071,3.7,3.7,0,0,0-2.651-.986m9.479-2.985h-2.164v3.307h-1.228v1.675h1.228v5.99a2.818,2.818,0,0,0,2.949,3.027h1.294v-1.868h-.89c-.807,0-1.188-.471-1.188-1.266v-5.883h2.079V268.69h-2.079Zm13.336,8.223v.966H149.9c0,1.868.975,3.05,2.736,3.05a3.2,3.2,0,0,0,2.609-1.117l1.378,1.309a5.016,5.016,0,0,1-4.029,1.7c-2.694,0-4.836-1.439-4.836-5.581,0-3.521,1.8-5.56,4.559-5.56,2.885,0,4.561,2.145,4.561,5.237m-2.143-.559a3.436,3.436,0,0,0-.3-1.48,2.214,2.214,0,0,0-2.121-1.374,2.242,2.242,0,0,0-2.14,1.374,3.444,3.444,0,0,0-.276,1.48Zm9.988-4.679a3.554,3.554,0,0,0-2.863,1.309V268.5h-2.119v10.885H161.9V272.77a2.23,2.23,0,0,1,2.142-2.448,1.986,1.986,0,0,1,1.612.73l1.632-1.653a3.306,3.306,0,0,0-2.566-1.03" transform="translate(0 -137.247)" fill="#790729"/>
    <path id="Path_233192" data-name="Path 233192" d="M456.434,313.33c-5.765-2.923-7.973-4.393-10.256-6.686a18.287,18.287,0,0,1,3.213-8.612c.3,2.689,1.6,10.295,7.044,15.3" transform="translate(-256.058 -171.038)" fill="#003378"/>
    <path id="Path_233193" data-name="Path 233193" d="M505.175,139.516l0-.013c.248-.946.511-1.836.768-2.688,1.1-4.481,1.567-10.187-.949-13.8l-.364-.482c-5.022-6.237-25.107-16.571-20.642-25.577-3.905,2.936-2.326,10.574,5.44,19.592,7.3,8.476,16.808,14.678,15.742,22.966" transform="translate(-276.58 -55.643)" fill="#003378"/>
    <path id="Path_233194" data-name="Path 233194" d="M97.3,389.8a.624.624,0,1,1,.623.649.621.621,0,0,1-.623-.649m3.919,4.285v1.793a1.746,1.746,0,0,1-1.787,1.676H77.02a2.278,2.278,0,0,1-.573-.067,1.818,1.818,0,0,1-1.016-.614v1.942a2.288,2.288,0,0,1-2.361,2.259,2.775,2.775,0,0,1-1.722-.547l-.015-.415a2.282,2.282,0,0,0,1.213.331,1.694,1.694,0,0,0,1.656-.879,2.277,2.277,0,0,0,.229-.9v-4.579a6.284,6.284,0,0,0-.2-1.4h1.395a6.188,6.188,0,0,0-.2,1.4v1.726a1.281,1.281,0,0,0,1.216,1.111h5.6V391.21c0-.647-.017-.748-.2-.93l1.361-.681a5.145,5.145,0,0,0-.164,1.113l-.181,5.536a5.309,5.309,0,0,1,3.871-3.554,2.739,2.739,0,0,1,3.477,2.507,3.632,3.632,0,0,1-.23,1.725h6.721a2.631,2.631,0,0,1,2.133-4.414c1.739,0,2.182.6,2.182,1.578m-11.807,1.292c0-1-.573-2.323-2.623-1.973-2,.348-3.248,2.473-3.723,3.517h5.673c.788-.049.672-1.062.672-1.544m9.626-2.522a1.876,1.876,0,0,0-1.771,1.943,1.989,1.989,0,0,0,1.8,2.122c.785,0,1.147-.4,1.147-1.526,0-1.508.065-2.54-1.181-2.54m.836-2.407a.63.63,0,1,0-.622-.649.62.62,0,0,0,.622.649m8.858,0a.63.63,0,0,0,0-1.261.635.635,0,0,0-.624.612.621.621,0,0,0,.624.649m-1.951,0a.63.63,0,0,0,0-1.261.634.634,0,0,0-.625.612.622.622,0,0,0,.625.649m27.608,2.922,1.36-.681v.1a2.348,2.348,0,0,0-.163,1.013v2.425a1.287,1.287,0,0,1-1.428,1.459c-.312,0-.852-.1-1.641-1a1.252,1.252,0,0,1-1.376,1c-.312,0-.87-.083-1.69-1.045a1.268,1.268,0,0,1-1.346.913h-3.358a3.364,3.364,0,0,1-.605-.082,1.931,1.931,0,0,1-1.069-.681,1.212,1.212,0,0,1-1.344.895c-.311,0-.852-.1-1.639-1a1.253,1.253,0,0,1-1.378,1c-.311,0-.868-.083-1.689-1.045a1.267,1.267,0,0,1-1.345.913H110.23a1.445,1.445,0,0,1-1.624-1.594,2.561,2.561,0,0,1-1.871.6,1.338,1.338,0,0,1-1.41-1.411c0-.946,1.1-1.926,3.329-2.374a6.49,6.49,0,0,1,.673-.083.714.714,0,0,1,.277,0v2.938c0,.8.15,1.294.936,1.294h4.683c.838,0,.92-.8.92-1.759v-.681c0-.613.014-.513-.181-.663l-.017-.051,1.359-.679v.1a2.35,2.35,0,0,0-.164,1.013c0,1.842-.014,1.81-.014,1.942a2.039,2.039,0,0,0,1.244.995c.789,0,.773-.763.773-1.642v-1.23c0-.614.015-.513-.18-.663l-.017-.049,1.361-.68v.1a2.359,2.359,0,0,0-.164,1.013v2.158a2.04,2.04,0,0,0,1.248.995c.786,0,.77-.763.77-1.642v-1.411c0-.614.016-.515-.181-.663l-.015-.051,1.361-.681v.1a2.323,2.323,0,0,0-.166,1.013v2.01a1.283,1.283,0,0,0,1.215,1.111h3.277c.918,0,.918-.8.918-1.759v-.681c0-.613.017-.513-.181-.663l-.017-.051,1.362-.679v.1a2.344,2.344,0,0,0-.164,1.013c0,1.842-.016,1.81-.016,1.942a2.035,2.035,0,0,0,1.247.995c.787,0,.768-.763.768-1.642v-1.23c0-.614.019-.513-.179-.663l-.017-.049,1.362-.68v.1a2.333,2.333,0,0,0-.165,1.013v2.158a2.046,2.046,0,0,0,1.246.995c.788,0,.773-.763.773-1.642v-1.411c0-.614.015-.515-.183-.663Zm-25.787-.167a2.344,2.344,0,0,0-2.166,1.776.936.936,0,0,0,.95,1.1,1.5,1.5,0,0,0,1.217-.6Zm32.068-2.058-.015-.364a1.4,1.4,0,0,1-.755.215c-.608,0-.789-.531-.736-1.047.048-.382.294-.611.574-.562a.477.477,0,0,1,.458.364l.524-.132a1.214,1.214,0,0,0-.884-.516,1.144,1.144,0,0,0-1.393,1.029.994.994,0,0,0,.329.864c-.329,0-.559,0-.625-.132l-.05-.018-.326.564h2.1a1.281,1.281,0,0,0,.8-.266m12.015,4.25a2.221,2.221,0,0,1-.735,1.761,3.078,3.078,0,0,1-2.018.73,2.482,2.482,0,0,1-1.819-.73,1.3,1.3,0,0,1-1.049.4h-5.49v1.261a2.289,2.289,0,0,1-2.361,2.259,2.779,2.779,0,0,1-1.723-.547l-.017-.415a2.289,2.289,0,0,0,1.214.331,1.7,1.7,0,0,0,1.658-.879,2.285,2.285,0,0,0,.229-.9v-1.111h-1.788a2.32,2.32,0,0,1-2.212-2.474,2.609,2.609,0,0,1,2.821-2.491c.785,0,2.18.449,2.18,1.71v2.622h5.013c.721,0,.9-.613.921-1.41V395.4a2.555,2.555,0,0,1,2.687-2.473,2.341,2.341,0,0,1,2.491,2.473M139.4,392.911a1.78,1.78,0,0,0-1.624,1.924c0,1.211.557,2.09,1.673,2.09h1.13v-1.493c0-1.511.034-2.522-1.179-2.522m12.178,2.621c0-1.393-.608-2.306-1.526-2.306-.9,0-1.427.715-1.427,1.926,0,1.393.656,2.407,1.56,2.407.869,0,1.393-.746,1.393-2.027m8.069,7.356a.641.641,0,0,0,0,1.277.639.639,0,0,0,0-1.277m1.953,0a.65.65,0,0,0-.624.631.607.607,0,1,0,.624-.631m13.048-8.8v1.793a1.745,1.745,0,0,1-1.787,1.676h-7.964a3.727,3.727,0,0,1-1.167,2.075,4.26,4.26,0,0,1-2.361,1.444c-2.658,0-4.758-2.692-4.559-3.685a2.326,2.326,0,0,1,1.442-1.328l.115.214a1.365,1.365,0,0,0-.737.73c-.262.815,1.458,3.19,3.738,3.19a2.377,2.377,0,0,0,1.9-.83c1.3-1.362.85-2.823-.639-3.62v-.629a4.244,4.244,0,0,1,2.148,1.808h5.556a2.6,2.6,0,0,1-.707-1.874,2.631,2.631,0,0,1,2.837-2.54c1.739,0,2.182.6,2.182,1.578m-2.182-1.229a1.878,1.878,0,0,0-1.772,1.943,1.99,1.99,0,0,0,1.8,2.122c.787,0,1.149-.4,1.149-1.526,0-1.508.066-2.54-1.181-2.54m-.18-2.407a.63.63,0,0,0,0-1.261.635.635,0,0,0-.625.612.622.622,0,0,0,.625.649m22.2,0a.63.63,0,0,0,0-1.261.634.634,0,0,0-.623.612.621.621,0,0,0,.623.649m13.409,6.259.035.547a3.4,3.4,0,0,1-1.544.3H183.748v1.261a2.287,2.287,0,0,1-2.36,2.258,2.783,2.783,0,0,1-1.724-.547l-.014-.415a2.273,2.273,0,0,0,1.212.331,1.689,1.689,0,0,0,1.656-.879,2.215,2.215,0,0,0,.23-.9v-1.111h-1.787a2.321,2.321,0,0,1-2.214-2.473,2.609,2.609,0,0,1,2.821-2.491c.785,0,2.18.448,2.18,1.71v2.622h6.16v-1.509c0-.6-.046-.73-.227-.865l-.018-.049,1.361-.679v.1c-.048.167-.213.067-.3,2.326a5.311,5.311,0,0,1,3.872-3.554,2.737,2.737,0,0,1,3.476,2.506,3.605,3.605,0,0,1-.232,1.725H204.5a2.285,2.285,0,0,1-.917-2.058,2.537,2.537,0,0,1,3-2.159,2.357,2.357,0,0,1,1.638.848l-.819.266a1.242,1.242,0,0,0-1.018-.747,1.385,1.385,0,0,0-1.641,1.359c-.13,1.23.28,2.277,1.657,2.46a2.964,2.964,0,0,0,1.492-.183m-26.325-3.8a1.779,1.779,0,0,0-1.624,1.924c0,1.212.558,2.091,1.673,2.091h1.13v-1.493c0-1.511.032-2.522-1.179-2.522m15.51,2.471c0-1-.578-2.324-2.625-1.973-2,.348-3.25,2.473-3.724,3.517h5.608c.856,0,.741-1.062.741-1.544" transform="translate(-40.936 -223.295)" fill="#0b352a"/>
    <path id="Path_233195" data-name="Path 233195" d="M79.916,432.42c.239,0,.627-.009,1.162-.022v.346a3.967,3.967,0,0,0-.775.056.367.367,0,0,0-.19.129,1.255,1.255,0,0,0-.079.524c-.006.074-.013.585-.026,1.54V437.5c0,.493.006.97.026,1.434a1.741,1.741,0,0,0,.076.614.351.351,0,0,0,.2.142,3.718,3.718,0,0,0,.771.058v.347q-1.083-.048-1.527-.049c-.239,0-.769.017-1.584.049v-.347a3.825,3.825,0,0,0,.777-.058.328.328,0,0,0,.186-.124,1.272,1.272,0,0,0,.08-.526c0-.078.014-.589.027-1.539v-3.975l-1.848,3.91q-.434.916-.678,1.475-.178.407-.538,1.286h-.208a2.963,2.963,0,0,0-.129-.329l-.363-.786-2.56-5.378v3.8q0,.739.022,1.434a1.749,1.749,0,0,0,.077.614.346.346,0,0,0,.2.142,3.731,3.731,0,0,0,.775.058v.347l-1.289-.036-1.334.036v-.347a3.719,3.719,0,0,0,.768-.058.363.363,0,0,0,.191-.124,1.449,1.449,0,0,0,.08-.526c0-.078.013-.589.026-1.539v-2.506c0-.493,0-.973-.016-1.441a1.683,1.683,0,0,0-.078-.609.357.357,0,0,0-.2-.142,3.905,3.905,0,0,0-.773-.056V432.4c.374.013.734.022,1.077.022s.677-.009.995-.022c.314.722.6,1.355.862,1.9l2.033,4.232,1.825-3.883q.752-1.581,1.006-2.248c.376.013.7.022.957.022m5.857,3.456a2.478,2.478,0,0,1,.227,1.08,2.768,2.768,0,0,1-.028.367,5.014,5.014,0,0,1-.687.1c-.386.029-.77.044-1.157.044H82.412a2.789,2.789,0,0,0,.265,1.257,1.631,1.631,0,0,0,.7.711,2.027,2.027,0,0,0,1.58.12,4.163,4.163,0,0,0,.8-.393l.085.094-.171.388a4.63,4.63,0,0,1-.541.309,3.03,3.03,0,0,1-.576.193,2.857,2.857,0,0,1-.683.08,2.722,2.722,0,0,1-1.28-.3,2.071,2.071,0,0,1-.89-.891,2.873,2.873,0,0,1-.319-1.391,3.506,3.506,0,0,1,.169-1.124,2.148,2.148,0,0,1,.382-.738,2.714,2.714,0,0,1,.481-.4,3.331,3.331,0,0,1,.65-.355,2.359,2.359,0,0,1,.916-.18,2.149,2.149,0,0,1,1.084.277,1.655,1.655,0,0,1,.708.753m-.754.994a1.9,1.9,0,0,0-.343-1.258,1.143,1.143,0,0,0-.915-.4,1.211,1.211,0,0,0-.975.44,2.154,2.154,0,0,0-.374,1.387c.1.013.288.022.568.033.53.02.9.026,1.1.026.476,0,.787-.007.937-.026,0-.087.006-.153.006-.2m9.9,2.843a.251.251,0,0,1-.067-.085,1.227,1.227,0,0,1-.064-.4c0-.076,0-.332-.013-.769l-.014-.753v-.565a5.726,5.726,0,0,0-.074-1.191,1.482,1.482,0,0,0-.53-.749,1.607,1.607,0,0,0-1.026-.327,1.977,1.977,0,0,0-.509.071,1.774,1.774,0,0,0-.4.151,1.98,1.98,0,0,0-.272.229l-.591.551a1.62,1.62,0,0,0-.614-.753,1.645,1.645,0,0,0-.912-.253,1.982,1.982,0,0,0-.479.057,1.473,1.473,0,0,0-.353.131,1.158,1.158,0,0,0-.165.138l-.7.649c.007-.344.019-.6.032-.775,0-.034.006-.063.006-.087a.12.12,0,0,0-.022-.08.065.065,0,0,0-.058-.029.422.422,0,0,0-.146.053,5.532,5.532,0,0,1-1.58.4v.307a4.727,4.727,0,0,1,.7.024.238.238,0,0,1,.122.089,1.282,1.282,0,0,1,.049.383c.012.333.019.641.019.931v.646c-.019.988-.028,1.508-.028,1.552a1,1,0,0,1-.075.389.3.3,0,0,1-.094.089.439.439,0,0,1-.177.04l-.513,0v.309q.934-.037,1.395-.035c.345,0,.765.011,1.257.035v-.309c-.372-.006-.571-.011-.593-.015a.391.391,0,0,1-.135-.055.236.236,0,0,1-.064-.085,1.171,1.171,0,0,1-.064-.4q0-.114-.027-1.522v-.331a6.5,6.5,0,0,1,.054-.9.934.934,0,0,1,.189-.44,1.2,1.2,0,0,1,.44-.344,1.383,1.383,0,0,1,.607-.138,1.058,1.058,0,0,1,.64.193,1,1,0,0,1,.372.515,3.478,3.478,0,0,1,.109,1.02v.424c-.015.988-.024,1.508-.028,1.552a.972.972,0,0,1-.07.389.271.271,0,0,1-.094.089.429.429,0,0,1-.181.04l-.51,0v.309c.677-.024,1.147-.035,1.4-.035.316,0,.738.011,1.262.035v-.309c-.374-.006-.573-.011-.6-.015a.389.389,0,0,1-.131-.055.271.271,0,0,1-.064-.085,1.226,1.226,0,0,1-.065-.4c0-.076-.008-.332-.013-.769l-.012-.753v-.365a4.206,4.206,0,0,1,.084-1.055.944.944,0,0,1,.348-.473,1.342,1.342,0,0,1,.805-.26,1.141,1.141,0,0,1,.679.207.94.94,0,0,1,.384.537,5.5,5.5,0,0,1,.092,1.246v.467l-.014.584-.044,1.5c.473-.024.788-.035.944-.035s.471.011.919.035v-.309c-.373-.006-.571-.011-.593-.015a.411.411,0,0,1-.133-.055m6.046-3.772a2.608,2.608,0,0,1,.242,1.129,2.946,2.946,0,0,1-.137.9,3.4,3.4,0,0,1-.359.766,1.57,1.57,0,0,1-.274.346l-.782.569a3.542,3.542,0,0,1-.744.459,2.042,2.042,0,0,1-.686.1,2.125,2.125,0,0,1-.665-.1,2.372,2.372,0,0,1-.648-.342l-.433.413-.178-.071q.066-.683.07-.86c.022-.784.031-1.246.031-1.384v-2.408c0-.6-.008-1.226-.026-1.868a3.789,3.789,0,0,0-.057-.727.164.164,0,0,0-.088-.078,3.849,3.849,0,0,0-.743-.035v-.32a6.045,6.045,0,0,0,1.681-.38.3.3,0,0,1,.107-.031.079.079,0,0,1,.06.022.1.1,0,0,1,.02.069.8.8,0,0,1-.01.108l0,.178c-.019.645-.031,1.2-.033,1.651l-.01.844v1.073l.738-.733a1.5,1.5,0,0,1,.476-.242,2.034,2.034,0,0,1,.708-.119,1.971,1.971,0,0,1,1.044.277,1.827,1.827,0,0,1,.7.789m-.693,1.568a2.54,2.54,0,0,0-.2-1.064,1.407,1.407,0,0,0-1.329-.857,1.508,1.508,0,0,0-.91.3,1.4,1.4,0,0,0-.534.733v2.035a1.218,1.218,0,0,0,.029.347.622.622,0,0,0,.18.2,1.741,1.741,0,0,0,.522.3,1.76,1.76,0,0,0,.629.113,1.36,1.36,0,0,0,1.193-.606,2.57,2.57,0,0,0,.419-1.5m5.847-1.633a2.5,2.5,0,0,1,.224,1.08,3.31,3.31,0,0,1-.026.367,5.024,5.024,0,0,1-.69.1c-.386.029-.77.044-1.155.044h-1.716a2.772,2.772,0,0,0,.264,1.257,1.618,1.618,0,0,0,.7.711,2.024,2.024,0,0,0,.927.227,2.045,2.045,0,0,0,.651-.107,4.151,4.151,0,0,0,.8-.393l.086.094-.171.388a4.367,4.367,0,0,1-.541.309,3.02,3.02,0,0,1-.575.193,2.831,2.831,0,0,1-.681.08,2.722,2.722,0,0,1-1.282-.3,2.091,2.091,0,0,1-.891-.891,2.907,2.907,0,0,1-.318-1.391,3.53,3.53,0,0,1,.169-1.124,2.1,2.1,0,0,1,.384-.738,2.5,2.5,0,0,1,.481-.4,3.363,3.363,0,0,1,.647-.355,2.357,2.357,0,0,1,.915-.18,2.151,2.151,0,0,1,1.085.277,1.671,1.671,0,0,1,.71.753m-.755.994a1.9,1.9,0,0,0-.344-1.258,1.147,1.147,0,0,0-.914-.4,1.209,1.209,0,0,0-.975.44,2.141,2.141,0,0,0-.374,1.387c.1.013.287.022.566.033.532.02.9.026,1.1.026.474,0,.786-.007.934-.026,0-.087.008-.153.008-.2m4.761-1.995a1.163,1.163,0,0,0-.435.081,1.34,1.34,0,0,0-.369.227,2.514,2.514,0,0,0-.3.357c-.134.185-.283.371-.443.558,0-.462.013-.8.032-1.024,0-.034.006-.063.006-.087a.122.122,0,0,0-.022-.08.067.067,0,0,0-.058-.029.439.439,0,0,0-.146.053,5.533,5.533,0,0,1-1.579.4v.307a4.776,4.776,0,0,1,.7.024.246.246,0,0,1,.125.089,1.291,1.291,0,0,1,.044.383c.011.333.016.641.016.931v.646c0,.043-.009.549-.026,1.513a1.189,1.189,0,0,1-.065.389.259.259,0,0,1-.074.1.34.34,0,0,1-.137.051c-.032.006-.251.013-.658.019v.309c.428-.024.871-.035,1.329-.035.442,0,.979.011,1.605.035v-.309a5.278,5.278,0,0,1-.868-.1.263.263,0,0,1-.113-.066.319.319,0,0,1-.058-.134,2.848,2.848,0,0,1-.025-.429q-.026-.946-.026-1.306v-.558a1.577,1.577,0,0,1,.289-1.033.886.886,0,0,1,.7-.344.674.674,0,0,1,.409.12.94.94,0,0,1,.285.38h.244c.007-.365.037-.789.09-1.269l-.032-.077a1.137,1.137,0,0,0-.443-.1m7.913.689a2.523,2.523,0,0,1,.708,1.848,2.939,2.939,0,0,1-.364,1.451,2.632,2.632,0,0,1-1.028,1.029,2.953,2.953,0,0,1-1.462.371,2.377,2.377,0,0,1-1.052-.211,2.117,2.117,0,0,1-.7-.531,2.627,2.627,0,0,1-.406-.658,3.245,3.245,0,0,1-.246-1.264,2.69,2.69,0,0,1,.763-1.984,2.648,2.648,0,0,1,1.959-.768,2.454,2.454,0,0,1,1.829.718m-.326,2.279a4.014,4.014,0,0,0-.249-1.488,1.843,1.843,0,0,0-.633-.887,1.515,1.515,0,0,0-.854-.258,1.335,1.335,0,0,0-1.066.482,2.289,2.289,0,0,0-.41,1.5,4.5,4.5,0,0,0,.218,1.357,1.982,1.982,0,0,0,.637,1,1.446,1.446,0,0,0,.9.32,1.3,1.3,0,0,0,1.037-.5,2.35,2.35,0,0,0,.419-1.535m4.449-5.818a1.143,1.143,0,0,0-.514.111,2.984,2.984,0,0,0-.515.429,7.678,7.678,0,0,0-.759.855,1.875,1.875,0,0,0-.249.52,3.831,3.831,0,0,0-.087.993v.327a5.952,5.952,0,0,1-.741.378v.219l.741-.04v1.895c-.02.989-.027,1.506-.027,1.553a.98.98,0,0,1-.076.386.282.282,0,0,1-.094.089.441.441,0,0,1-.176.04l-.513,0v.309q1.131-.037,1.377-.035c.184,0,.688.011,1.522.035v-.309a5.421,5.421,0,0,1-.871-.1.255.255,0,0,1-.113-.067.345.345,0,0,1-.056-.133,2.641,2.641,0,0,1-.026-.427q-.027-.945-.027-1.306v-1.937c.295-.013.519-.022.669-.022s.375.009.686.022l.107-.564-.055-.032c-.273.025-.556.038-.84.038h-.567v-1.122a3.067,3.067,0,0,1,.084-.907.663.663,0,0,1,.265-.339.838.838,0,0,1,.472-.12.959.959,0,0,1,.381.066,1.1,1.1,0,0,1,.331.2l.124-.049-.023-.9a1.386,1.386,0,0,0-.428-.069m9.169,7.566a4.51,4.51,0,0,1-2.077.66,4.9,4.9,0,0,1,.52.1,4.949,4.949,0,0,1,.664.234,12.927,12.927,0,0,0,1.421.511,3.09,3.09,0,0,0,.768.118,1.933,1.933,0,0,0,.565-.114v.276a1.69,1.69,0,0,1-.255.162c-.187.111-.32.188-.393.242a1.962,1.962,0,0,0-.217.183c-.051,0-.167-.014-.349-.038a4.673,4.673,0,0,1-.557-.118c-.192-.053-.528-.162-1.01-.334a8.123,8.123,0,0,0-1.675-.47.753.753,0,0,0-.225.037,1.618,1.618,0,0,0-.266.122l-.5.3v-.352a5.656,5.656,0,0,1,1.387-.857,4.57,4.57,0,0,1-2.186-.452,3.224,3.224,0,0,1-1.337-1.413,4.563,4.563,0,0,1-.5-2.152,3.869,3.869,0,0,1,1.139-2.871,4.088,4.088,0,0,1,3-1.124,4.9,4.9,0,0,1,1.658.264,3.358,3.358,0,0,1,1.96,1.751,4.107,4.107,0,0,1,.346,1.73,4.548,4.548,0,0,1-.48,2.1,3.814,3.814,0,0,1-1.4,1.51m.423-1.421a4.688,4.688,0,0,0,.324-1.8,5.15,5.15,0,0,0-.22-1.548,3.316,3.316,0,0,0-.6-1.162,2.539,2.539,0,0,0-.958-.7,3.159,3.159,0,0,0-1.283-.254,2.638,2.638,0,0,0-2.042.82,3.487,3.487,0,0,0-.752,2.439,5.224,5.224,0,0,0,.143,1.148,4.652,4.652,0,0,0,.384,1.084,3.253,3.253,0,0,0,.6.817,2.705,2.705,0,0,0,.828.556,2.827,2.827,0,0,0,1.1.2,2.782,2.782,0,0,0,1.5-.4,2.456,2.456,0,0,0,.969-1.192m6.365,1.584.349.031v.309c-.294-.024-.551-.035-.772-.035s-.5.011-.856.035l.026-.954c-.728.558-1.16.869-1.294.941a1.122,1.122,0,0,1-.515.106,1.386,1.386,0,0,1-1.008-.35,1.226,1.226,0,0,1-.363-.929,1.8,1.8,0,0,1,.126-.682,1.555,1.555,0,0,1,.3-.491,1.3,1.3,0,0,1,.358-.269,5.647,5.647,0,0,1,1.01-.313,12.03,12.03,0,0,1,1.383-.251,1.969,1.969,0,0,0-.123-.8,1.057,1.057,0,0,0-.432-.471,1.429,1.429,0,0,0-.747-.184,1.608,1.608,0,0,0-.552.087.908.908,0,0,0-.292.144l-.1.2c-.1.217-.168.386-.215.508l-.282-.075c0-.082,0-.2,0-.342s0-.274,0-.362a5.447,5.447,0,0,1,1.115-.607,2.248,2.248,0,0,1,.746-.116,2.071,2.071,0,0,1,1.027.234,1.44,1.44,0,0,1,.623.668,2.008,2.008,0,0,1,.139.829l-.025.991v1.615a1.235,1.235,0,0,0,.041.375.234.234,0,0,0,.1.119.648.648,0,0,0,.225.043m-1.253-2.521a10.765,10.765,0,0,0-1.188.266,2.161,2.161,0,0,0-.7.3.746.746,0,0,0-.215.273,1.343,1.343,0,0,0-.137.6.862.862,0,0,0,.219.626.81.81,0,0,0,.611.222,1.373,1.373,0,0,0,.707-.207,2.812,2.812,0,0,0,.7-.627Zm3.616-1.442c.335,0,.6,0,.788,0s.4,0,.619,0l.114-.5-.037-.038c-.094.011-.233.018-.417.022-.337.007-.522.009-.554.009-.056,0-.226,0-.513,0q.07-1.533.129-1.983l-.129-.109a4.374,4.374,0,0,1-.906.417v1.649a8.356,8.356,0,0,1-.819.369v.227c.223-.018.421-.026.6-.026h.219v2.25c0,.068,0,.13-.007.191-.01.288-.016.56-.018.806a1.543,1.543,0,0,0,.118.564.922.922,0,0,0,.232.294,1.067,1.067,0,0,0,.308.181,1.23,1.23,0,0,0,.45.067,3.111,3.111,0,0,0,.409-.024,1.916,1.916,0,0,0,.381-.1c.154-.145.317-.283.484-.416l-.062-.213a1.7,1.7,0,0,1-.346.1,2.582,2.582,0,0,1-.352.017,1.144,1.144,0,0,1-.409-.106.568.568,0,0,1-.2-.187.8.8,0,0,1-.1-.275,8.215,8.215,0,0,1-.011-.964Zm6.259,3.963.349.031v.309c-.293-.024-.551-.035-.771-.035s-.5.011-.857.035l.026-.954c-.728.558-1.16.869-1.295.941a1.116,1.116,0,0,1-.515.106,1.393,1.393,0,0,1-1.008-.35,1.229,1.229,0,0,1-.361-.929,1.759,1.759,0,0,1,.125-.682,1.525,1.525,0,0,1,.3-.491,1.249,1.249,0,0,1,.36-.269,5.592,5.592,0,0,1,1.009-.313,12.03,12.03,0,0,1,1.383-.251,1.953,1.953,0,0,0-.124-.8,1.048,1.048,0,0,0-.433-.471,1.421,1.421,0,0,0-.747-.184,1.624,1.624,0,0,0-.553.087.913.913,0,0,0-.29.144l-.1.2c-.1.217-.172.386-.218.508l-.281-.075c0-.082,0-.2,0-.342s0-.274,0-.362a5.444,5.444,0,0,1,1.114-.607,2.244,2.244,0,0,1,.745-.116,2.1,2.1,0,0,1,1.032.234,1.453,1.453,0,0,1,.621.668,2.033,2.033,0,0,1,.137.829l-.025.991v1.615a1.227,1.227,0,0,0,.043.375.237.237,0,0,0,.1.119.637.637,0,0,0,.224.043m-1.253-2.521a10.885,10.885,0,0,0-1.189.266,2.1,2.1,0,0,0-.693.3.732.732,0,0,0-.217.273,1.311,1.311,0,0,0-.138.6.876.876,0,0,0,.217.626.816.816,0,0,0,.613.222,1.384,1.384,0,0,0,.709-.207,2.879,2.879,0,0,0,.7-.627Zm5.282-2.357a1.163,1.163,0,0,0-.434.081,1.284,1.284,0,0,0-.369.227,2.5,2.5,0,0,0-.3.357c-.133.185-.283.371-.443.558,0-.462.013-.8.032-1.024,0-.034,0-.063,0-.087a.109.109,0,0,0-.021-.08.063.063,0,0,0-.058-.029.435.435,0,0,0-.145.053,5.536,5.536,0,0,1-1.581.4v.307a4.789,4.789,0,0,1,.7.024.247.247,0,0,1,.124.089,1.279,1.279,0,0,1,.043.383c.01.333.014.641.014.931v.646c0,.043-.007.549-.024,1.513a1.088,1.088,0,0,1-.064.389.262.262,0,0,1-.073.1.338.338,0,0,1-.135.051c-.034.006-.253.013-.658.019v.309c.429-.024.869-.035,1.327-.035s.975.011,1.606.035v-.309a5.262,5.262,0,0,1-.867-.1.243.243,0,0,1-.114-.066.29.29,0,0,1-.057-.134,2.614,2.614,0,0,1-.026-.429q-.028-.946-.027-1.306v-.558a1.572,1.572,0,0,1,.288-1.033.887.887,0,0,1,.7-.344.677.677,0,0,1,.409.12,1,1,0,0,1,.286.38h.239c.009-.365.04-.789.092-1.269l-.031-.077a1.138,1.138,0,0,0-.444-.1m7.46-2.49c-.243,0-.711.01-1.4.026s-1.173.024-1.442.024c-.38,0-.837-.011-1.379-.037v.346a3.941,3.941,0,0,1,.773.056.367.367,0,0,1,.2.142,1.67,1.67,0,0,1,.077.609c.013.468.018.948.018,1.441V437.5c-.015.95-.023,1.461-.028,1.539a1.4,1.4,0,0,1-.081.526.356.356,0,0,1-.191.124,3.691,3.691,0,0,1-.765.058v.347c.775-.024,1.362-.036,1.765-.036.45,0,.9.012,1.356.036v-.347a3.766,3.766,0,0,1-.773-.058.35.35,0,0,1-.2-.142,1.69,1.69,0,0,1-.075-.614c-.011-.466-.019-.943-.019-1.434v-1.1c.268-.015.526-.022.782-.022a8.208,8.208,0,0,1,1.38.071.3.3,0,0,1,.2.114,4.267,4.267,0,0,1,.084.633l.038.348h.337l-.039-1.328.039-1.235h-.337l-.045.335a1.722,1.722,0,0,1-.1.458.334.334,0,0,1-.2.089,6.66,6.66,0,0,1-1.085.071c-.308,0-.662-.007-1.06-.016v-1.2c.013-.729.021-1.142.025-1.24.008-.169.02-.352.042-.545a9.825,9.825,0,0,1,1.12-.067,8.519,8.519,0,0,1,.949.047,3,3,0,0,1,.689.144,6.334,6.334,0,0,1,.132,1.006h.34a7.713,7.713,0,0,1,.171-1.642c-.175-.013-.369-.026-.587-.029s-.454-.01-.712-.01m6.333,3.179a2.52,2.52,0,0,1,.706,1.848,2.926,2.926,0,0,1-.364,1.451,2.64,2.64,0,0,1-1.028,1.029,2.947,2.947,0,0,1-1.462.371,2.394,2.394,0,0,1-1.054-.211,2.14,2.14,0,0,1-.7-.531,2.537,2.537,0,0,1-.4-.658,3.246,3.246,0,0,1-.247-1.264,2.692,2.692,0,0,1,.764-1.984,2.641,2.641,0,0,1,1.958-.768,2.457,2.457,0,0,1,1.83.718m-.328,2.279a3.98,3.98,0,0,0-.249-1.488,1.812,1.812,0,0,0-.632-.887,1.517,1.517,0,0,0-.851-.258,1.343,1.343,0,0,0-1.07.482,2.306,2.306,0,0,0-.409,1.5,4.438,4.438,0,0,0,.219,1.357,1.969,1.969,0,0,0,.634,1,1.449,1.449,0,0,0,.9.32,1.3,1.3,0,0,0,1.039-.5,2.355,2.355,0,0,0,.417-1.535m6.8,1.871a.284.284,0,0,1-.071-.085,1.2,1.2,0,0,1-.058-.4c0-.075-.013-.331-.027-.769l-.01-.753v-.742q0-.31.031-1.193c.012-.344.025-.573.035-.689,0-.044,0-.08,0-.109a.124.124,0,0,0-.024-.082.083.083,0,0,0-.061-.026.289.289,0,0,0-.136.049,4.719,4.719,0,0,1-1.664.418v.309c.114,0,.27.006.467.006a.562.562,0,0,1,.284.053.194.194,0,0,1,.068.087,1.9,1.9,0,0,1,.048.466c.009.38.015.618.015.711v.453c0,.316-.01.631-.026.948a.738.738,0,0,1-.049.247,1.284,1.284,0,0,1-.156.242,1.764,1.764,0,0,1-.309.336,1.406,1.406,0,0,1-.456.257,1.5,1.5,0,0,1-.509.089,1.167,1.167,0,0,1-.629-.158.812.812,0,0,1-.345-.428,3.374,3.374,0,0,1-.086-.931v-1.055c0-.207.009-.611.03-1.218.011-.326.024-.548.038-.664a.975.975,0,0,0,0-.109.115.115,0,0,0-.023-.082.082.082,0,0,0-.062-.026.272.272,0,0,0-.132.049,4.773,4.773,0,0,1-1.672.418v.309c.116,0,.269.006.466.006a.558.558,0,0,1,.286.053.21.21,0,0,1,.068.087,2.057,2.057,0,0,1,.048.466c.012.38.017.618.017.711v.926a3.027,3.027,0,0,1-.014.331c-.009.111-.016.229-.016.358a2.451,2.451,0,0,0,.086.684,1.247,1.247,0,0,0,.238.464,1.309,1.309,0,0,0,.5.363,1.907,1.907,0,0,0,.722.12,2.34,2.34,0,0,0,.552-.056,1.8,1.8,0,0,0,.459-.189.718.718,0,0,0,.2-.151c.3-.3.551-.535.764-.711-.012.366-.026.692-.047.986.272-.024.538-.036.8-.036q.361,0,1.061.036v-.309c-.372-.006-.57-.011-.591-.015a.345.345,0,0,1-.126-.055m6.343-.024a.421.421,0,0,1-.085-.225,8.4,8.4,0,0,1-.035-.959v-.958c0-.747-.016-1.2-.039-1.362a1.581,1.581,0,0,0-.259-.682,1.464,1.464,0,0,0-.585-.448,1.9,1.9,0,0,0-.822-.18,2.373,2.373,0,0,0-.83.162l-1,.862c.011-.42.02-.7.03-.824a.615.615,0,0,0,.006-.087.137.137,0,0,0-.02-.08.071.071,0,0,0-.061-.029.457.457,0,0,0-.144.053,5.553,5.553,0,0,1-1.579.4v.307a4.684,4.684,0,0,1,.695.024.237.237,0,0,1,.122.089,1.339,1.339,0,0,1,.051.383c.01.333.015.641.015.931v.646c-.017.988-.027,1.508-.027,1.552a1.062,1.062,0,0,1-.075.389.3.3,0,0,1-.1.089.418.418,0,0,1-.177.04l-.509,0v.309q1.016-.037,1.467-.035c.356,0,.749.011,1.183.035v-.309c-.372-.006-.571-.011-.592-.015a.381.381,0,0,1-.135-.055.28.28,0,0,1-.067-.085,1.245,1.245,0,0,1-.063-.4c0-.076-.007-.582-.025-1.522v-.658a1.856,1.856,0,0,1,.139-.849,1.243,1.243,0,0,1,.475-.442,1.428,1.428,0,0,1,.733-.193,1.324,1.324,0,0,1,.776.222.985.985,0,0,1,.412.584,6.163,6.163,0,0,1,.064,1.118v.911q0,.353-.075,1.69c.464-.024.8-.035,1-.035.229,0,.523.011.873.035v-.309l-.574-.015a.264.264,0,0,1-.173-.08m6.285.015a3.147,3.147,0,0,0,.669.1v.294c-.438-.024-.744-.035-.923-.035-.155,0-.468.011-.943.035.012-.249.022-.584.028-1.006-.141.1-.335.259-.574.471s-.429.38-.566.513a3.185,3.185,0,0,1-.754.112,2.122,2.122,0,0,1-1.112-.3A1.991,1.991,0,0,1,178.7,439a2.978,2.978,0,0,1-.275-1.3,3.108,3.108,0,0,1,.169-1.028,2.043,2.043,0,0,1,.426-.749,3.684,3.684,0,0,1,.658-.462,8.8,8.8,0,0,1,.832-.449,1.788,1.788,0,0,1,.693-.135,2.652,2.652,0,0,1,.663.082,2.688,2.688,0,0,1,.628.26v-1.428a3.757,3.757,0,0,0-.061-.913.139.139,0,0,0-.085-.087,2.935,2.935,0,0,0-.736-.055v-.309c.4-.044.731-.1,1.006-.155s.535-.134.8-.22l.069.049c-.014.308-.031.9-.047,1.779l-.023.866v3.395c0,.367.009.686.019.955a1.526,1.526,0,0,0,.067.482.336.336,0,0,0,.163.129m-1.17-3.563a2.418,2.418,0,0,0-.762-.594,1.842,1.842,0,0,0-.782-.186,1.536,1.536,0,0,0-.812.226,1.463,1.463,0,0,0-.564.689,2.831,2.831,0,0,0-.2,1.1,2.28,2.28,0,0,0,.488,1.548,1.5,1.5,0,0,0,1.172.558,1.362,1.362,0,0,0,.643-.151,1.492,1.492,0,0,0,.5-.445,1.475,1.475,0,0,0,.273-.649,9.529,9.529,0,0,0,.042-1.175Zm6.834,3.612.348.031v.309c-.293-.024-.551-.035-.772-.035s-.5.011-.855.035l.024-.954c-.727.558-1.159.869-1.3.941a1.1,1.1,0,0,1-.513.106,1.385,1.385,0,0,1-1.007-.35,1.233,1.233,0,0,1-.362-.929,1.791,1.791,0,0,1,.126-.682,1.509,1.509,0,0,1,.3-.491,1.252,1.252,0,0,1,.359-.269,5.636,5.636,0,0,1,1.012-.313,11.917,11.917,0,0,1,1.38-.251,1.94,1.94,0,0,0-.123-.8,1.046,1.046,0,0,0-.434-.471,1.418,1.418,0,0,0-.744-.184,1.61,1.61,0,0,0-.553.087.911.911,0,0,0-.293.144l-.1.2c-.1.217-.168.386-.214.508l-.282-.075c0-.082,0-.2,0-.342s0-.274,0-.362a5.372,5.372,0,0,1,1.115-.607,2.241,2.241,0,0,1,.745-.116,2.076,2.076,0,0,1,1.028.234,1.447,1.447,0,0,1,.623.668,1.993,1.993,0,0,1,.14.829l-.028.991v1.615a1.264,1.264,0,0,0,.041.375.247.247,0,0,0,.1.119.653.653,0,0,0,.225.043m-1.254-2.521a10.966,10.966,0,0,0-1.188.266,2.17,2.17,0,0,0-.7.3.766.766,0,0,0-.214.273,1.315,1.315,0,0,0-.137.6.866.866,0,0,0,.219.626.807.807,0,0,0,.608.222,1.388,1.388,0,0,0,.713-.207,2.805,2.805,0,0,0,.7-.627Zm3.616-1.442c.334,0,.6,0,.784,0s.4,0,.624,0l.114-.5-.039-.038c-.093.011-.233.018-.418.022-.333.007-.518.009-.551.009-.058,0-.228,0-.515,0,.046-1.022.09-1.684.127-1.983l-.127-.109a4.319,4.319,0,0,1-.9.417v1.649a8.208,8.208,0,0,1-.821.369v.227c.222-.018.422-.026.6-.026h.222v2.25c0,.068,0,.13-.006.191-.011.288-.019.56-.022.806a1.468,1.468,0,0,0,.121.564.9.9,0,0,0,.229.294,1.066,1.066,0,0,0,.309.181,1.242,1.242,0,0,0,.453.067,3.064,3.064,0,0,0,.4-.024,1.9,1.9,0,0,0,.38-.1c.158-.145.317-.283.486-.416l-.065-.213a1.613,1.613,0,0,1-.342.1,2.612,2.612,0,0,1-.356.017,1.151,1.151,0,0,1-.407-.106.54.54,0,0,1-.2-.187.783.783,0,0,1-.1-.275,9.435,9.435,0,0,1-.009-.964Zm2.932-2.108a.577.577,0,0,0,.427-.18.59.59,0,0,0,.176-.429.584.584,0,0,0-.176-.43.565.565,0,0,0-.427-.18.571.571,0,0,0-.426.18.61.61,0,0,0,0,.859.572.572,0,0,0,.426.18m.676,6.032a.447.447,0,0,1-.07-.085,1.2,1.2,0,0,1-.058-.4q0-.114-.029-1.522v-.987q0-.612.04-1.768l-.117-.087a5.457,5.457,0,0,1-1.744.456v.309a3.105,3.105,0,0,1,.712.04.226.226,0,0,1,.117.122,4.889,4.889,0,0,1,.052.961v.954c-.02.988-.026,1.508-.026,1.552a1.067,1.067,0,0,1-.075.389.3.3,0,0,1-.094.089.427.427,0,0,1-.176.04l-.51,0v.309c.649-.024,1.115-.035,1.4-.035.325,0,.758.011,1.3.035v-.309c-.374-.006-.573-.011-.6-.015a.409.409,0,0,1-.128-.055m5.667-4.15a2.517,2.517,0,0,1,.706,1.848,2.939,2.939,0,0,1-.364,1.451,2.618,2.618,0,0,1-1.028,1.029,2.949,2.949,0,0,1-1.463.371,2.39,2.39,0,0,1-1.052-.211,2.111,2.111,0,0,1-.7-.531,2.454,2.454,0,0,1-.406-.658,3.194,3.194,0,0,1-.248-1.264,2.687,2.687,0,0,1,.764-1.984,2.641,2.641,0,0,1,1.958-.768,2.459,2.459,0,0,1,1.829.718m-.326,2.279a3.969,3.969,0,0,0-.251-1.488,1.794,1.794,0,0,0-.635-.887,1.5,1.5,0,0,0-.85-.258,1.336,1.336,0,0,0-1.066.482,2.293,2.293,0,0,0-.411,1.5,4.542,4.542,0,0,0,.218,1.357,1.984,1.984,0,0,0,.636,1,1.453,1.453,0,0,0,.9.32,1.3,1.3,0,0,0,1.038-.5,2.362,2.362,0,0,0,.418-1.535m6.92,1.926a.272.272,0,0,1-.176-.08.445.445,0,0,1-.082-.225,7.48,7.48,0,0,1-.04-.959v-.958a13.623,13.623,0,0,0-.037-1.362,1.56,1.56,0,0,0-.259-.682,1.433,1.433,0,0,0-.582-.448,1.9,1.9,0,0,0-.824-.18,2.375,2.375,0,0,0-.83.162l-1,.862c.011-.42.02-.7.03-.824a.625.625,0,0,0,.006-.087.145.145,0,0,0-.019-.08.068.068,0,0,0-.061-.029.439.439,0,0,0-.145.053,5.568,5.568,0,0,1-1.58.4v.307a4.759,4.759,0,0,1,.7.024.239.239,0,0,1,.119.089,1.294,1.294,0,0,1,.052.383c.01.333.015.641.015.931v.646c-.019.988-.026,1.508-.026,1.552a1.048,1.048,0,0,1-.076.389.313.313,0,0,1-.1.089.427.427,0,0,1-.175.04l-.513,0v.309c.68-.024,1.168-.035,1.468-.035.354,0,.749.011,1.182.035v-.309c-.372-.006-.569-.011-.592-.015a.406.406,0,0,1-.136-.055.3.3,0,0,1-.065-.085,1.18,1.18,0,0,1-.063-.4q0-.114-.027-1.522v-.658a1.853,1.853,0,0,1,.141-.849,1.243,1.243,0,0,1,.475-.442,1.431,1.431,0,0,1,.734-.193,1.327,1.327,0,0,1,.777.222.987.987,0,0,1,.412.584,6.069,6.069,0,0,1,.064,1.118v.911c0,.235-.025.8-.072,1.69.463-.024.8-.035.994-.035.231,0,.521.011.872.035v-.309Z" transform="translate(-40.839 -247.935)" fill="#0b352a"/>
    <path id="Path_233196" data-name="Path 233196" d="M518.48,295.229a16.934,16.934,0,0,1,.478,1.776c.4,2.342.583,7.783-4.535,13.214-6.662,6.662-18.078,12.752-19.053,13.412,4.025-1.342,14.99-5.9,17.821-8.1,10.821-7.2,5.289-20.3,5.289-20.3" transform="translate(-284.288 -169.429)" fill="#79b3e5"/>
    <path id="Path_233197" data-name="Path 233197" d="M478.5,156.963l.371.49c3.059,4.393,1.7,11.888.175,16.5-2.744,8.313-23.952,20.6-31.029,26.206-5.774,4.568-17.245,14.475-8.318,24.591q.409.46.869.933h0a18.286,18.286,0,0,1,3.213-8.612c7.67-11.411,26.59-19.2,36.3-30.271,5.168-5.889,8.164-21.408-1.589-29.84" transform="translate(-250.456 -90.08)" fill="#79b3e5"/>
    <path id="Path_233198" data-name="Path 233198" d="M476.841.1c-.119.066-.306.146-.533.244a8.726,8.726,0,0,1-.828.3A11.073,11.073,0,0,1,474.4.911c-.4.083-.833.154-1.3.217-.235.03-.469.064-.715.091l-.768.09c-.263.027-.531.064-.805.1s-.556.075-.842.128a13.848,13.848,0,0,0-1.755.408c-.3.1-.585.2-.889.326l-.23.1-.194.1-.095.047-.068.035-.052.029-.208.116a8.028,8.028,0,0,0-1.49,1.088,8.741,8.741,0,0,0-1.122,1.272c-.317.432-.8,1.286-1.058,1.662a5.225,5.225,0,0,1-.377.475l0,0a2.316,2.316,0,0,1-.937.823,5.022,5.022,0,0,1-1.543.684,16.256,16.256,0,0,1-1.969.524h0a88.274,88.274,0,0,0-10.631,3.509c-9.966,4.222-14.016,15.982-14.11,16.19s6.6-10.217,14.513-13.178c1.423-.533,5.177-1.552,5.929-1.713,8.569-1.615,8.122-6,12.464-8.781.2-.129.4-.267.618-.386.1-.065.213-.12.322-.176s.216-.117.329-.166l.167-.079.042-.02h0l.024-.01.1-.04.194-.081.163-.063c.224-.088.475-.173.724-.246.5-.16,1.018-.286,1.546-.419.264-.062.531-.126.8-.194s.532-.128.794-.2l.392-.109.2-.056.186-.059c.257-.083.514-.165.752-.258a10.09,10.09,0,0,0,1.336-.616,7,7,0,0,0,1.041-.7,5.248,5.248,0,0,0,.689-.678A2.934,2.934,0,0,0,476.776.4c.061-.082.108-.156.146-.216.074-.12.109-.186.109-.186l-.191.1" transform="translate(-248.633 0)" fill="#79b3e5"/>
    <path id="Path_233199" data-name="Path 233199" d="M589.807,100.57c.093-.213.189-.433.278-.689a5.525,5.525,0,0,0-.519-4.979,3.862,3.862,0,0,0-.395-.421,7.956,7.956,0,0,0,.357.753c.187.28.586,1.154.38.889a4.156,4.156,0,0,0-.749-.762,4.335,4.335,0,0,1-1,3.431c-.165.208-.336.424-.5.663l-.075.1c-.4.555-.8,1.468-.624,4.011.018.262.048.516.076.761.126,1.075.443,2.144-.507,3.289a2.938,2.938,0,0,1-.96.711c-.211.092-.433.185-.68.285-.209.073-.422.137-.634.193a15.266,15.266,0,0,1-2.116.367.056.056,0,0,0-.042.086,1.11,1.11,0,0,0,1.187.684h0l.072-.009c.1-.012.2-.027.308-.045.079-.013.17-.029.268-.047,4.377-.7,5.444-3.428,5.444-3.428h0a5.549,5.549,0,0,0,.524-1.984,5.915,5.915,0,0,0-.1-1.555,7.127,7.127,0,0,1-.3-1.471,2.343,2.343,0,0,1,.307-.834" transform="translate(-334.053 -54.221)" fill="#79b3e5"/>
    <path id="Path_233200" data-name="Path 233200" d="M566.581,116.623a2.035,2.035,0,0,1,1.006,1.4c.322,1.129,1.01,3.738,2.924,4.04a7.274,7.274,0,0,0,7.688-4.487,12.2,12.2,0,0,1-2.935,1.776,5.509,5.509,0,0,1-5.411-.421,23.444,23.444,0,0,0-3.267-2.678,39.1,39.1,0,0,0-4.172-1.8Z" transform="translate(-322.764 -65.685)" fill="#083974"/>
    <path id="Path_233201" data-name="Path 233201" d="M524.947,100.913c-.718-.506-4.579-2.853-4.749-2.957s-.347-.208-.531-.306c-.369-.2-.761-.4-1.181-.591s-.862-.372-1.326-.554c-.232-.086-.471-.168-.713-.253s-.491-.156-.743-.234a25.728,25.728,0,0,0-3.222-.733c-.283-.041-.565-.089-.857-.125s-.591-.071-.886-.1l-.841-.074-.9-.052c-1.165-.055-2.3-.073-3.391-.124-.542-.025-1.077-.057-1.589-.107-.26-.022-.508-.058-.761-.084l-.369-.056-.184-.028-.179-.033-.458-.085c-.065-.012-.15-.037-.214-.054s-.143-.029-.2-.046l-.15-.04-.15-.039-.075-.019-.038-.009-.049-.017-.4-.135-.1-.033-.025-.009-.012,0c.019.009-.061-.025.04.018l-.039-.016-.158-.064c-.21-.087-.427-.156-.633-.264a17.69,17.69,0,0,1-2.441-1.4c-.787-.525-1.544-1.073-2.27-1.578l-.538-.369c-.176-.12-.349-.237-.523-.348s-.339-.222-.505-.325-.331-.2-.49-.294-.315-.182-.467-.265-.3-.163-.441-.237c-.29-.142-.556-.27-.8-.378s-.475-.192-.669-.262-.36-.113-.5-.155c-.271-.078-.419-.114-.419-.114s.1.117.292.325l.161.174c.06.063.127.131.19.209.13.155.28.327.445.514.16.2.342.418.535.654s.4.493.61.78c.431.556.908,1.2,1.453,1.894s1.157,1.454,1.893,2.228a14.929,14.929,0,0,0,2.663,2.255c.258.179.544.334.829.491l.216.118.054.029c.109.047.037.016.064.029l.012.006.023.011.094.045.379.18.048.022.062.025.124.049.249.1.251.1,0,0,.926.291.253.068.239.063.237.051.478.1c.316.054.636.115.951.149.633.089,1.256.13,1.87.164,1.226.055,2.406.033,3.521.011l.806-.017.844-.009.777,0,.78.007c1.034.016,2.033.056,2.982.119.236.018.472.031.7.051s.457.043.681.06c.444.05.88.087,1.294.146s.814.113,1.2.168.742.124,1.084.185c2.581.373,7.033,2.961,7.033,2.961s-1.384-1.285-2.171-1.838" transform="translate(-281.1 -50.478)" fill="#79b3e5"/>
    <path id="Path_233202" data-name="Path 233202" d="M552.413,40.95l-.012-.02s-.055-.048-.155-.123l-.009-.008h0a6.245,6.245,0,0,0-1.561-.8,25.776,25.776,0,0,1-3.9-2.412h0c-2.3-1.648-4.266-3.365-4.867-3.889-1.313-1.146-2.175-2.081-2.27-2.18l-.278-.3c-.737-.8-2.567-3.579-3.136-4.442l-.21-.323-.182-.3-.217-.384-.014-.025-.007-.012c-.014-.026,0,.008.01.019l-.022-.04-.045-.085-.09-.173c-.119-.235-.24-.484-.366-.744s-.252-.536-.392-.816l-.214-.427-.113-.219-.058-.109-.064-.117-.065-.118-.056-.1-.064-.11-.068-.108-.27-.429-.137-.212c-.044-.069-.121-.179-.17-.245l-.427-.575c-.044-.058-.088-.114-.135-.169l-.311-.363a18.343,18.343,0,0,0-2.581-2.421q-.385-.3-.763-.571h0a7.033,7.033,0,0,0-.693-.482c-.241-.163-.479-.319-.711-.468h0c-1.267-1.088-5.772-3.173-6.631-4.394-1.686-2.4-.515-3.907-.278-4.343S522.145,5.79,522.4,5.39c.522-.8,1.029-1.539,1.468-2.18s1.156-1.538,1.411-1.923c.029-.04.049-.073.074-.11a2.308,2.308,0,0,1-.146.182,5.247,5.247,0,0,1-.689.678,7.025,7.025,0,0,1-1.04.7,9.64,9.64,0,0,1-.874.423,18.036,18.036,0,0,0-1.3,1.393c-.32.386-.64.8-.939,1.234a24.11,24.11,0,0,0-1.756,2.681,3.84,3.84,0,0,0,.176,4.376c1.413,2.29,5.818,3.294,10.791,10.061.074.1.136.21.2.316s.123.217.187.323l.188.323c.065.107.11.222.168.332l.168.331.043.083c-.014-.026,0,0,0,0l.006.013.012.024.023.051.046.1.034.08.152.355.158.383.338.823c.119.287.248.586.393.893l.111.231.058.117.029.059.044.083.105.2.054.1.027.05.034.059c.093.16.188.328.282.481s.184.294.278.439a17.88,17.88,0,0,0,2.591,3.054l.351.327.354.318c.238.2.475.406.714.6.118.1.239.191.358.286l.1.08.086.066.172.131c.173.133,2.551,2.254,8.619,4.847,1.854.792,3.868,1.641,5.219,2.3a4.549,4.549,0,0,1,1.857,1.419,2.224,2.224,0,0,1,.478.938,4.019,4.019,0,0,0-1.206-2.563" transform="translate(-297.284 -0.675)" fill="#003378"/>
  </g>
</svg>
